<svg height="464pt" viewBox="0 -80 464 464" width="464pt" xmlns="http://www.w3.org/2000/svg"><path d="m16 0h432c8.835938 0 16 7.164062 16 16v272c0 8.835938-7.164062 16-16 16h-432c-8.835938 0-16-7.164062-16-16v-272c0-8.835938 7.164062-16 16-16zm0 0" fill="#5e8acc"/><path d="m0 64h464v-48c0-8.835938-7.164062-16-16-16h-432c-8.835938 0-16 7.164062-16 16zm0 0" fill="#5279b3"/><g fill="#476899"><path d="m256 96h16v16h-16zm0 0"/><path d="m288 96h112v16h-112zm0 0"/><path d="m416 96h16v16h-16zm0 0"/><path d="m256 128h16v16h-16zm0 0"/><path d="m288 128h112v16h-112zm0 0"/><path d="m416 128h16v16h-16zm0 0"/><path d="m256 160h16v16h-16zm0 0"/><path d="m288 160h112v16h-112zm0 0"/><path d="m416 160h16v16h-16zm0 0"/><path d="m256 192h16v16h-16zm0 0"/><path d="m288 192h112v16h-112zm0 0"/><path d="m416 192h16v16h-16zm0 0"/><path d="m256 224h16v16h-16zm0 0"/><path d="m288 224h112v16h-112zm0 0"/><path d="m416 224h16v16h-16zm0 0"/><path d="m256 256h16v16h-16zm0 0"/><path d="m288 256h112v16h-112zm0 0"/><path d="m416 256h16v16h-16zm0 0"/></g><path d="m216 184c0 44.183594-35.816406 80-80 80s-80-35.816406-80-80 35.816406-80 80-80 80 35.816406 80 80zm0 0" fill="#ffd04a"/><path d="m176 160v-8c-.007812-8.832031-7.167969-15.992188-16-16h-16v-8h-16v8h-16c-8.832031.007812-15.992188 7.167969-16 16v24c.007812 8.832031 7.167969 15.992188 16 16h16v24h-16v-8h-16v8c.007812 8.832031 7.167969 15.992188 16 16h16v8h16v-8h16c8.832031-.007812 15.992188-7.167969 16-16v-24c-.007812-8.832031-7.167969-15.992188-16-16h-16v-24h16v8zm-16 32v24h-16v-24zm-32-16h-16v-24h16zm0 0" fill="#997d2c"/></svg>