<?xml version="1.0" encoding="iso-8859-1"?>
<!-- Generator: Adobe Illustrator 19.0.0, SVG Export Plug-In . SVG Version: 6.00 Build 0)  -->
<svg version="1.1" id="Capa_1" xmlns="http://www.w3.org/2000/svg" xmlns:xlink="http://www.w3.org/1999/xlink" x="0px" y="0px"
	 viewBox="0 0 427.68 427.68" style="enable-background:new 0 0 427.68 427.68;" xml:space="preserve">
<path style="fill:#CC9640;" d="M87.04,54.44h52.64c5.037,0,9.12,4.083,9.12,9.12v16.8c0,5.037-4.083,9.12-9.12,9.12H87.04
	c-5.037,0-9.12-4.083-9.12-9.12v-16.8C77.92,58.523,82.003,54.44,87.04,54.44z"/>
<path style="fill:#FFCF70;" d="M93.76,89.56h35.44v36.24H93.76V89.56z"/>
<path style="fill:#CC9640;" d="M288,54.44h52.64c5.037,0,9.12,4.083,9.12,9.12v16.8c0,5.037-4.083,9.12-9.12,9.12H288
	c-5.037,0-9.12-4.083-9.12-9.12v-16.8C278.88,58.523,282.963,54.44,288,54.44z"/>
<g>
	<path style="fill:#FFCF70;" d="M294.64,89.56h35.44v36.24h-35.44V89.56z"/>
	<path style="fill:#FFCF70;" d="M113.36,324.68c-41.355,0-74.88-33.525-74.88-74.88c0-41.355,33.525-74.88,74.88-74.88
		s74.88,33.525,74.88,74.88l0,0C188.196,291.137,154.697,324.636,113.36,324.68L113.36,324.68z"/>
</g>
<path style="fill:#CC9640;" d="M17.2,373.32c-5.037,0-9.12-4.083-9.12-9.12V135.48c0-5.037,4.083-9.12,9.12-9.12h393.28
	c5.037,0,9.12,4.083,9.12,9.12v228.64c0,5.037-4.083,9.12-9.12,9.12L17.2,373.32z M314.32,174.92
	c-41.355,0-74.88,33.525-74.88,74.88s33.525,74.88,74.88,74.88s74.88-33.525,74.88-74.88
	C389.156,208.463,355.657,174.964,314.32,174.92z M113.44,174.92c-41.355,0-74.88,33.525-74.88,74.88s33.525,74.88,74.88,74.88
	s74.88-33.525,74.88-74.88c-0.044-41.368-33.592-74.88-74.96-74.88H113.44z"/>
<path style="fill:#FFCF70;" d="M314.32,324.68c-41.355,0-74.88-33.525-74.88-74.88c0-41.355,33.525-74.88,74.88-74.88
	s74.88,33.525,74.88,74.88C389.156,291.137,355.657,324.636,314.32,324.68z"/>
<g>
	<path style="fill:#35231A;" d="M410.56,118.28h-72.48v-20.8h2.48c9.499,0.044,17.236-7.62,17.28-17.12c0,0,0,0,0,0v-16.8
		c-0.044-9.437-7.683-17.076-17.12-17.12H288c-9.437,0.044-17.076,7.683-17.12,17.12v16.8c0.023,9.004,7.016,16.451,16,17.04v20.88
		H137.2v-20.8h2.48c9.437-0.044,17.076-7.683,17.12-17.12v-16.8c-0.044-9.437-7.683-17.076-17.12-17.12H87.12
		c-9.499-0.044-17.236,7.621-17.28,17.12c0,0.027,0,0.053,0,0.08v16.8c0.023,9.004,7.016,16.451,16,17.04v20.88H17.2
		c-9.468,0-17.156,7.652-17.2,17.12v228.64c0.044,9.437,7.683,17.076,17.12,17.12h393.44c9.437-0.044,17.076-7.683,17.12-17.12
		V135.48C427.68,126.012,420.028,118.324,410.56,118.28L410.56,118.28z M286.88,63.64c0-0.619,0.501-1.12,1.12-1.12h52.64
		c0.619,0,1.12,0.501,1.12,1.12v16.8c0,0.619-0.501,1.12-1.12,1.12H288c-0.619,0-1.12-0.501-1.12-1.12L286.88,63.64z M322.16,97.56
		v20.32h-19.52V97.56H322.16z M85.84,63.64c0-0.619,0.501-1.12,1.12-1.12h52.64c0.619,0,1.12,0.501,1.12,1.12v16.8
		c0,0.619-0.501,1.12-1.12,1.12H87.12c-0.619,0-1.12-0.501-1.12-1.12L85.84,63.64z M121.12,97.56v20.32h-19.28V97.56H121.12z
		 M411.68,364.12c0,0.619-0.501,1.12-1.12,1.12H17.2c-0.619,0-1.12-0.501-1.12-1.12V135.48c0-0.619,0.501-1.12,1.12-1.12h393.36
		c0.619,0,1.12,0.501,1.12,1.12V364.12z"/>
	<path style="fill:#35231A;" d="M113.36,166.92c-45.773,0.044-82.844,37.187-82.8,82.96s37.187,82.844,82.96,82.8
		c45.742-0.044,82.8-37.138,82.8-82.88C196.276,204.014,159.146,166.92,113.36,166.92L113.36,166.92z M113.36,316.68
		c-36.937,0-66.88-29.943-66.88-66.88c0-36.937,29.943-66.88,66.88-66.88s66.88,29.943,66.88,66.88l0,0
		C180.196,286.719,150.279,316.636,113.36,316.68L113.36,316.68z"/>
	<path style="fill:#35231A;" d="M314.32,166.92c-45.773,0-82.88,37.107-82.88,82.88c0,45.773,37.107,82.88,82.88,82.88
		s82.88-37.107,82.88-82.88C397.156,204.045,360.075,166.964,314.32,166.92L314.32,166.92z M314.32,316.68
		c-36.937,0-66.88-29.943-66.88-66.88c0-36.937,29.943-66.88,66.88-66.88s66.88,29.943,66.88,66.88
		C381.156,286.719,351.239,316.636,314.32,316.68z"/>
	<path style="fill:#35231A;" d="M113.36,196.6c-4.418,0-8,3.582-8,8v37.2H77.84c-4.418,0-8,3.582-8,8s3.582,8,8,8h35.44
		c4.418,0,8-3.582,8-8v-45.2C121.28,200.213,117.747,196.644,113.36,196.6L113.36,196.6z"/>
	<path style="fill:#35231A;" d="M349.84,241.8h-27.52v-37.2c0-4.418-3.582-8-8-8s-8,3.582-8,8v45.2c0,4.418,3.582,8,8,8h35.52
		c4.418,0,8-3.582,8-8S354.258,241.8,349.84,241.8z"/>
</g>
<g>
</g>
<g>
</g>
<g>
</g>
<g>
</g>
<g>
</g>
<g>
</g>
<g>
</g>
<g>
</g>
<g>
</g>
<g>
</g>
<g>
</g>
<g>
</g>
<g>
</g>
<g>
</g>
<g>
</g>
</svg>
