<svg height="464pt" viewBox="-80 0 464 464" width="464pt" xmlns="http://www.w3.org/2000/svg"><path d="m16 0h272c8.835938 0 16 7.164062 16 16v432c0 8.835938-7.164062 16-16 16h-272c-8.835938 0-16-7.164062-16-16v-432c0-8.835938 7.164062-16 16-16zm0 0" fill="#ffd04a"/><path d="m64 48h176c8.835938 0 16 7.164062 16 16v176c0 8.835938-7.164062 16-16 16h-176c-8.835938 0-16-7.164062-16-16v-176c0-8.835938 7.164062-16 16-16zm0 0" fill="#75c1ff"/><path d="m64 288h176c8.835938 0 16 7.164062 16 16s-7.164062 16-16 16h-176c-8.835938 0-16-7.164062-16-16s7.164062-16 16-16zm0 0" fill="#cca63b"/><path d="m224 288v112c0 8.835938-7.164062 16-16 16h-112c-8.835938 0-16-7.164062-16-16v-112zm0 0" fill="#efefef"/><g fill="#73c97c"><path d="m224 368c-26.507812 0-48 21.492188-48 48h32c8.835938 0 16-7.164062 16-16zm0 0"/><path d="m128 416c0-26.507812-21.492188-48-48-48v32c0 8.835938 7.164062 16 16 16zm0 0"/><path d="m192 288c0 22.089844-17.910156 40-40 40s-40-17.910156-40-40zm0 0"/></g><path d="m192 128v-8c-.007812-8.832031-7.167969-15.992188-16-16h-16v-16h-16v16h-16c-8.832031.007812-15.992188 7.167969-16 16v24c.007812 8.832031 7.167969 15.992188 16 16h16v24h-16v-8h-16v8c.007812 8.832031 7.167969 15.992188 16 16h16v16h16v-16h16c8.832031-.007812 15.992188-7.167969 16-16v-24c-.007812-8.832031-7.167969-15.992188-16-16h-16v-24h16v8zm-16 32v24h-16v-24zm-32-16h-16v-24h16zm0 0" fill="#5e9acc"/></svg>