<?xml version="1.0" encoding="iso-8859-1"?>
<!-- Generator: Adobe Illustrator 19.0.0, SVG Export Plug-In . SVG Version: 6.00 Build 0)  -->
<svg version="1.1" id="Capa_1" xmlns="http://www.w3.org/2000/svg" xmlns:xlink="http://www.w3.org/1999/xlink" x="0px" y="0px"
	 viewBox="0 0 390.135 390.135" style="enable-background:new 0 0 390.135 390.135;" xml:space="preserve">
<path style="fill:#FFCF70;" d="M118.827,219.243l179.04-179.12l52.08-16.08l-16.08,52.08l-179.04,179.04L118.827,219.243z"/>
<path style="fill:#CC9640;" d="M102.427,250.763l-1.28-0.72l-0.48-0.96l-14.24-14.24l24-24l52.72,52.72l-23.92,24L102.427,250.763z"
	/>
<path style="fill:#FFCF70;" d="M56.107,76.123l-16.08-52.08l52.08,16.08l102.88,102.88l-36,36L56.107,76.123z"/>
<path style="fill:#CC9640;" d="M32.027,365.803c-13.255-0.055-23.955-10.846-23.899-24.1c0.026-6.286,2.518-12.311,6.939-16.78
	c4.51-4.473,10.608-6.976,16.96-6.96h1.28l68.32-68.08l22.4,22.4l-68.08,68.08c0.46,6.861-2.045,13.59-6.88,18.48
	C44.538,363.336,38.406,365.84,32.027,365.803z"/>
<path style="fill:#FFCF70;" d="M195.016,215.036l35.978-35.978l40.22,40.22l-35.978,35.978L195.016,215.036z"/>
<g>
	<path style="fill:#CC9640;" d="M226.742,263.498l52.779-52.779l23.985,23.985l-52.779,52.779L226.742,263.498z"/>
	<path style="fill:#CC9640;" d="M357.947,365.803c-6.34,0.037-12.437-2.436-16.96-6.88c-4.835-4.89-7.34-11.619-6.88-18.48
		l-68.08-68.08l22.4-22.4l68.08,68.08h1.36c13.255-0.077,24.062,10.605,24.139,23.86c0.037,6.369-2.459,12.492-6.939,17.02
		C370.505,363.406,364.343,365.883,357.947,365.803L357.947,365.803z"/>
</g>
<path style="fill:#35231A;" d="M359.787,310.123l-60.08-60.08l9.52-9.52c3.102-3.12,3.102-8.16,0-11.28l-18.24-18.24l3.92-3.92
	c2.874-3.356,2.483-8.406-0.873-11.28c-2.995-2.565-7.412-2.565-10.407,0l-12.32,12.32l-29.04-29.12l97.2-97.2
	c0.923-0.915,1.61-2.04,2-3.28l16-52.08c1.3-4.223-1.069-8.7-5.292-10c-1.534-0.472-3.175-0.472-4.708,0l-52.08,16
	c-1.24,0.39-2.365,1.077-3.28,2l-97.12,97.28l-97.2-97.2c-0.915-0.923-2.04-1.61-3.28-2l-52.08-16c-4.223-1.3-8.7,1.069-10,5.292
	c-0.472,1.534-0.472,3.175,0,4.708l16,52.08c0.39,1.24,1.077,2.365,2,3.28l97.28,97.12l-28.88,28.88l-12.32-12.32
	c-3.356-2.874-8.406-2.483-11.28,0.873c-2.565,2.995-2.565,7.412,0,10.407l3.76,4.16l-18.32,18.32c-3.102,3.12-3.102,8.16,0,11.28
	l9.52,9.52l-60,60c-7.837,0.438-15.239,3.74-20.8,9.28c-12.505,12.489-12.518,32.75-0.029,45.255s32.75,12.518,45.255,0.029
	c5.56-5.553,8.883-12.958,9.334-20.804l60.08-60.08l9.52,9.52c3.12,3.102,8.16,3.102,11.28,0l18.16-18.32l3.92,3.92
	c3.356,2.874,8.406,2.483,11.28-0.873c2.565-2.995,2.565-7.412,0-10.407l-9.6-9.6l-2.72-2.72l29.12-29.04l28.88,28.88l-2.72,2.72
	l-9.6,9.6c-3.356,2.874-3.747,7.924-0.873,11.28s7.924,3.747,11.28,0.873c0.313-0.268,0.605-0.56,0.873-0.873l4.16-3.76l18.32,18.32
	c3.12,3.102,8.16,3.102,11.28,0l9.52-9.52l60.08,60.08c1.015,17.644,16.141,31.124,33.785,30.109
	c17.644-1.015,31.124-16.141,30.109-33.785c-0.451-7.846-3.774-15.251-9.334-20.804C375.146,313.828,367.68,310.522,359.787,310.123
	L359.787,310.123z M63.147,71.883l-11.04-35.68l35.68,11.04l96,96l-24.8,24.48L63.147,71.883z M50.267,334.843
	c-1.621,1.625-2.466,3.869-2.32,6.16c0.21,4.631-1.6,9.126-4.96,12.32c-6.336,6.044-16.304,6.044-22.64,0
	c-6.252-6.245-6.257-16.376-0.013-22.627c0.004-0.004,0.008-0.008,0.013-0.013c3-2.975,7.055-4.643,11.28-4.64h1.04
	c2.291,0.146,4.535-0.699,6.16-2.32l62.4-62.4l11.04,11.04L50.267,334.843z M138.987,276.283l-9.36-9.28l-22.64-22.64l-9.28-9.36
	l12.64-12.64l20.64,20.64l20.72,20.72L138.987,276.283z M154.587,244.283l-24.48-25.28l172-172l35.68-11.04l-11.04,35.68
	L154.587,244.283z M206.107,215.403l24.64-24.64l29.12,28.24l-24.88,24.88L206.107,215.403z M260.347,267.003l-9.36,9.28
	l-12.64-12.72l20.64-20.56l20.72-20.72l12.56,12.72l-9.28,9.28L260.347,267.003z M369.307,353.323
	c-6.336,6.044-16.304,6.044-22.64,0c-3.214-3.265-4.874-7.75-4.56-12.32c0.146-2.291-0.699-4.535-2.32-6.16l-62.4-62.4l11.04-11.04
	l62.4,62.4c1.625,1.621,3.869,2.466,6.16,2.32h1.04c4.225-0.003,8.28,1.665,11.28,4.64
	C375.511,337.004,375.511,347.083,369.307,353.323z"/>
<g>
</g>
<g>
</g>
<g>
</g>
<g>
</g>
<g>
</g>
<g>
</g>
<g>
</g>
<g>
</g>
<g>
</g>
<g>
</g>
<g>
</g>
<g>
</g>
<g>
</g>
<g>
</g>
<g>
</g>
</svg>
