<svg height="464pt" viewBox="0 -24 464 464" width="464pt" xmlns="http://www.w3.org/2000/svg"><path d="m96 288h272c4.417969 0 8 3.582031 8 8v48c0 4.417969-3.582031 8-8 8h-272c-4.417969 0-8-3.582031-8-8v-48c0-4.417969 3.582031-8 8-8zm0 0" fill="#ffbf75"/><path d="m88 312h288v16h-288zm0 0" fill="#cc995e"/><path d="m232 128h152l-152-112-152 112zm0 0" fill="#ffbf75"/><g fill="#cc995e"><path d="m248 80c0 8.835938-7.164062 16-16 16s-16-7.164062-16-16 7.164062-16 16-16 16 7.164062 16 16zm0 0"/><path d="m104 128h40v160h-40zm0 0"/><path d="m176 128h40v160h-40zm0 0"/><path d="m248 128h40v160h-40zm0 0"/><path d="m320 128h40v160h-40zm0 0"/></g><path d="m16 272h224c8.835938 0 16 7.164062 16 16v112c0 8.835938-7.164062 16-16 16h-224c-8.835938 0-16-7.164062-16-16v-112c0-8.835938 7.164062-16 16-16zm0 0" fill="#efefef"/><path d="m208 272c0 26.507812 21.492188 48 48 48v-32c0-8.835938-7.164062-16-16-16zm0 0" fill="#73c97c"/><path d="m256 368c-26.507812 0-48 21.492188-48 48h32c8.835938 0 16-7.164062 16-16zm0 0" fill="#73c97c"/><path d="m48 272h-32c-8.835938 0-16 7.164062-16 16v32c26.507812 0 48-21.492188 48-48zm0 0" fill="#73c97c"/><path d="m48 416c0-26.507812-21.492188-48-48-48v32c0 8.835938 7.164062 16 16 16zm0 0" fill="#73c97c"/><path d="m168 344c0 22.089844-17.910156 40-40 40s-40-17.910156-40-40 17.910156-40 40-40 40 17.910156 40 40zm0 0" fill="#73c97c"/><path d="m296 0h160c4.417969 0 8 3.582031 8 8v80c0 4.417969-3.582031 8-8 8h-160c-4.417969 0-8-3.582031-8-8v-80c0-4.417969 3.582031-8 8-8zm0 0" fill="#efefef"/><path d="m400 48c0 13.253906-10.746094 24-24 24s-24-10.746094-24-24 10.746094-24 24-24 24 10.746094 24 24zm0 0" fill="#73c97c"/><path d="m464 64c-17.671875 0-32 14.328125-32 32h24c4.417969 0 8-3.582031 8-8zm0 0" fill="#73c97c"/><path d="m320 96c0-17.671875-14.328125-32-32-32v24c0 4.417969 3.582031 8 8 8zm0 0" fill="#73c97c"/><path d="m464 32v-24c0-4.417969-3.582031-8-8-8h-24c0 17.671875 14.328125 32 32 32zm0 0" fill="#73c97c"/><path d="m288 32c17.671875 0 32-14.328125 32-32h-24c-4.417969 0-8 3.582031-8 8zm0 0" fill="#73c97c"/></svg>