<svg height="464pt" viewBox="0 0 464 464" width="464pt" xmlns="http://www.w3.org/2000/svg"><path d="m16 0h184c8.835938 0 16 7.164062 16 16v432c0 8.835938-7.164062 16-16 16h-184c-8.835938 0-16-7.164062-16-16v-432c0-8.835938 7.164062-16 16-16zm0 0" fill="#efefef"/><path d="m272 128h176c8.835938 0 16 7.164062 16 16v80c0 8.835938-7.164062 16-16 16h-176c-8.835938 0-16-7.164062-16-16v-80c0-8.835938 7.164062-16 16-16zm0 0" fill="#ffd04a"/><path d="m400 184c0 17.671875-14.328125 32-32 32s-32-14.328125-32-32 14.328125-32 32-32 32 14.328125 32 32zm0 0" fill="#75c1ff"/><path d="m389.167969 88h-42.335938c-6.542969 0-12.425781 3.984375-14.855469 10.058594l-11.976562 29.941406h96l-11.976562-29.941406c-2.429688-6.074219-8.3125-10.058594-14.855469-10.058594zm0 0" fill="#e6bb43"/><path d="m304 240v-112h-32c-8.835938 0-16 7.164062-16 16v80c0 8.835938 7.164062 16 16 16zm0 0" fill="#cca63b"/><g fill="#bcbcbc"><path d="m32 48h16v16h-16zm0 0"/><path d="m64 48h16v16h-16zm0 0"/><path d="m32 80h16v16h-16zm0 0"/><path d="m32 112h16v16h-16zm0 0"/><path d="m32 144h16v16h-16zm0 0"/><path d="m32 176h16v16h-16zm0 0"/><path d="m32 208h16v16h-16zm0 0"/><path d="m32 240h16v16h-16zm0 0"/><path d="m32 272h16v16h-16zm0 0"/><path d="m64 80h88v16h-88zm0 0"/><path d="m64 112h88v16h-88zm0 0"/><path d="m64 144h88v16h-88zm0 0"/><path d="m64 176h88v16h-88zm0 0"/><path d="m64 208h88v16h-88zm0 0"/><path d="m64 240h88v16h-88zm0 0"/><path d="m64 272h88v16h-88zm0 0"/><path d="m32 304h16v16h-16zm0 0"/><path d="m64 304h88v16h-88zm0 0"/><path d="m32 336h16v16h-16zm0 0"/><path d="m64 336h88v16h-88zm0 0"/><path d="m96 48h56v16h-56zm0 0"/><path d="m64 384h16v40h-16zm0 0"/><path d="m96 384h24v40h-24zm0 0"/><path d="m136 384h16v40h-16zm0 0"/><path d="m168 384h16v40h-16zm0 0"/><path d="m32 384h16v40h-16zm0 0"/><path d="m168 48h16v16h-16zm0 0"/><path d="m168 80h16v16h-16zm0 0"/><path d="m168 112h16v16h-16zm0 0"/><path d="m168 144h16v16h-16zm0 0"/><path d="m168 176h16v16h-16zm0 0"/><path d="m168 208h16v16h-16zm0 0"/><path d="m168 240h16v16h-16zm0 0"/><path d="m168 272h16v16h-16zm0 0"/><path d="m168 304h16v16h-16zm0 0"/><path d="m168 336h16v16h-16zm0 0"/></g><path d="m440 208c0 4.417969-3.582031 8-8 8s-8-3.582031-8-8 3.582031-8 8-8 8 3.582031 8 8zm0 0" fill="#cca63b"/><path d="m328 280h80c8.835938 0 16 7.164062 16 16v80c0 8.835938-7.164062 16-16 16h-80c-8.835938 0-16-7.164062-16-16v-80c0-8.835938 7.164062-16 16-16zm0 0" fill="#ff675b"/><path d="m400 328h-24v-24h-16v24h-24v16h24v24h16v-24h24zm0 0" fill="#efefef"/></svg>