<svg height="464pt" viewBox="0 -80 464 464" width="464pt" xmlns="http://www.w3.org/2000/svg"><path d="m16 0h224c8.835938 0 16 7.164062 16 16v272c0 8.835938-7.164062 16-16 16h-224c-8.835938 0-16-7.164062-16-16v-272c0-8.835938 7.164062-16 16-16zm0 0" fill="#ff675b"/><path d="m224 0h16c8.835938 0 16 7.164062 16 16v272c0 8.835938-7.164062 16-16 16h-16zm0 0" fill="#cc5249"/><path d="m216 0h16v304h-16zm0 0" fill="#993e37"/><path d="m48 32h128c8.835938 0 16 7.164062 16 16v16c0 8.835938-7.164062 16-16 16h-128c-8.835938 0-16-7.164062-16-16v-16c0-8.835938 7.164062-16 16-16zm0 0" fill="#73c97c"/><path d="m464 56v232c0 8.835938-7.164062 16-16 16h-144c-8.835938 0-16-7.164062-16-16v-232c0-8.835938 7.164062-16 16-16h144c8.835938 0 16 7.164062 16 16zm0 0" fill="#efefef"/><path d="m424 88v32c0 8.835938-7.164062 16-16 16h-32c-8.835938 0-16-7.164062-16-16v-32c0-8.835938 7.164062-16 16-16h32c8.835938 0 16 7.164062 16 16zm0 0" fill="#ffd04a"/><g fill="#bcbcbc"><path d="m416 264h16v16h-16zm0 0"/><path d="m416 192h16v56h-16zm0 0"/><path d="m416 160h16v16h-16zm0 0"/><path d="m384 264h16v16h-16zm0 0"/><path d="m384 192h16v56h-16zm0 0"/><path d="m384 160h16v16h-16zm0 0"/><path d="m352 264h16v16h-16zm0 0"/><path d="m352 192h16v56h-16zm0 0"/><path d="m352 160h16v16h-16zm0 0"/><path d="m320 64h16v16h-16zm0 0"/><path d="m320 264h16v16h-16zm0 0"/><path d="m320 96h16v152h-16zm0 0"/></g><path d="m168 112h16c4.417969 0 8 3.582031 8 8v16c0 4.417969-3.582031 8-8 8h-16c-4.417969 0-8-3.582031-8-8v-16c0-4.417969 3.582031-8 8-8zm0 0" fill="#cc5249"/><path d="m104 112h16c4.417969 0 8 3.582031 8 8v16c0 4.417969-3.582031 8-8 8h-16c-4.417969 0-8-3.582031-8-8v-16c0-4.417969 3.582031-8 8-8zm0 0" fill="#cc5249"/><path d="m40 112h16c4.417969 0 8 3.582031 8 8v16c0 4.417969-3.582031 8-8 8h-16c-4.417969 0-8-3.582031-8-8v-16c0-4.417969 3.582031-8 8-8zm0 0" fill="#cc5249"/><path d="m104 176h16c4.417969 0 8 3.582031 8 8v16c0 4.417969-3.582031 8-8 8h-16c-4.417969 0-8-3.582031-8-8v-16c0-4.417969 3.582031-8 8-8zm0 0" fill="#cc5249"/><path d="m40 176h16c4.417969 0 8 3.582031 8 8v16c0 4.417969-3.582031 8-8 8h-16c-4.417969 0-8-3.582031-8-8v-16c0-4.417969 3.582031-8 8-8zm0 0" fill="#cc5249"/><path d="m168 176h16c4.417969 0 8 3.582031 8 8v80c0 4.417969-3.582031 8-8 8h-16c-4.417969 0-8-3.582031-8-8v-80c0-4.417969 3.582031-8 8-8zm0 0" fill="#cc5249"/><path d="m104 240h16c4.417969 0 8 3.582031 8 8v16c0 4.417969-3.582031 8-8 8h-16c-4.417969 0-8-3.582031-8-8v-16c0-4.417969 3.582031-8 8-8zm0 0" fill="#cc5249"/><path d="m40 240h16c4.417969 0 8 3.582031 8 8v16c0 4.417969-3.582031 8-8 8h-16c-4.417969 0-8-3.582031-8-8v-16c0-4.417969 3.582031-8 8-8zm0 0" fill="#cc5249"/></svg>