<?xml version="1.0" encoding="iso-8859-1"?>
<!-- Generator: Adobe Illustrator 19.0.0, SVG Export Plug-In . SVG Version: 6.00 Build 0)  -->
<svg version="1.1" id="Capa_1" xmlns="http://www.w3.org/2000/svg" xmlns:xlink="http://www.w3.org/1999/xlink" x="0px" y="0px"
	 viewBox="0 0 467.68 467.68" style="enable-background:new 0 0 467.68 467.68;" xml:space="preserve">
<g>
	<path style="fill:#FFCF70;" d="M60.567,406.24l9.44-12.56c23.6-32,20.96-104,19.84-124.8l-0.56-8.48h66.08l-0.72,8.48
		c-1.36,20.8-3.92,92.8,19.6,124.8l9.44,12.72L60.567,406.24z"/>
	<path style="fill:#FFCF70;" d="M40.807,406.24h162.64V428H40.807L40.807,406.24z"/>
	<path style="fill:#FFCF70;" d="M79.527,238.56h85.28v21.76h-85.28L79.527,238.56z"/>
</g>
<path style="fill:#CC9640;" d="M28.967,428h186.32v31.36H28.967L28.967,428z"/>
<path style="fill:#FFCF70;" d="M96.407,216.8l-0.72-7.2c-1.706-17.31-9.236-33.528-21.36-46l-4.4-4.48l3.36-5.36
	c8.326-13.602,21.905-23.157,37.52-26.4c0,0,1.28-14.96,1.6-19.6c-3.12,0-6.16,0.56-9.04,0.96l-9.12,1.36v-24l9.2,1.36
	c2.933,0.427,5.973,0.747,9.12,0.96c0-3.2-0.56-6.16-0.96-9.12l-1.36-9.2h24l-1.36,9.2c-0.4,2.96-0.8,5.92-0.96,9.04
	c3.44,0,6.56-0.64,9.2-1.04l9.12-1.28v24l-9.12-1.28c-2.64,0-5.68-0.72-9.04-0.96c0.4,5.36,1.04,12.96,1.6,19.44
	c15.607,3.264,29.163,12.852,37.44,26.48l3.36,5.36l-4.4,4.48c-12.196,12.495-19.76,28.78-21.44,46.16l-0.72,7.2L96.407,216.8z"/>
<path style="fill:#CC9640;" d="M67.927,216.8h108.4v21.76h-108.4L67.927,216.8z"/>
<path style="fill:#35231A;" d="M427.767,172.16C427.767,59.52,365.447,0,247.607,0c-56.8,0-104,22-133.28,62.08h-4.72
	c-4.416-0.13-8.102,3.346-8.231,7.762c-0.021,0.727,0.056,1.453,0.231,2.158c0.56,2.4,1.12,4.8,1.52,7.28
	c-2.56,0-4.96-0.88-7.36-1.52c-4.289-1.062-8.626,1.553-9.689,5.842c-0.175,0.706-0.253,1.432-0.231,2.158v24.96
	c-0.13,4.416,3.346,8.102,7.762,8.231c0.727,0.021,1.453-0.056,2.158-0.231c2.4-0.64,4.96-1.12,7.52-1.52v4.16
	c-17.93,5.625-32.657,18.551-40.56,35.6c-1.37,3.323-0.355,7.151,2.48,9.36c12.478,11.015,20.43,26.264,22.32,42.8h-19.6
	c-4.418,0-8,3.582-8,8v21.76c0,4.418,3.582,8,8,8h3.6v13.76c0,4.418,3.582,8,8,8h2.32c2.48,37.6,1.12,116.16-29.28,129.92h-11.76
	c-4.418,0-8,3.582-8,8v13.76h-3.84c-4.418,0-8,3.582-8,8v31.36c0,4.418,3.582,8,8,8h186.32c4.418,0,8-3.582,8-8V428
	c0-4.418-3.582-8-8-8h-3.84v-13.76c0-4.418-3.582-8-8-8h-11.6c-30-13.84-31.6-92.56-29.12-129.92h2.08c4.418,0,8-3.582,8-8v-13.76
	h3.6c4.418,0,8-3.582,8-8V216.8c0-4.418-3.582-8-8-8h-19.6c1.909-16.508,9.86-31.725,22.32-42.72c2.873-2.219,3.891-6.095,2.48-9.44
	c-7.895-17.055-22.625-29.984-40.56-35.6c0-1.36,0-2.72,0-4.08c4.64,0.72,7.44,1.36,7.52,1.36c4.289,1.062,8.626-1.553,9.689-5.842
	c0.175-0.706,0.253-1.432,0.231-2.158V85.6c0.13-4.416-3.346-8.102-7.762-8.231c-0.727-0.021-1.453,0.056-2.158,0.231
	c0,0-2.8,0.64-7.28,1.36c0-2.48,0.88-4.88,1.44-7.2c1.061-4.289-1.555-8.626-5.844-9.687c-0.575-0.142-1.164-0.22-1.756-0.233
	c26.64-30.24,65.28-46.08,112.88-46.08c108.96,0,164.16,52.56,164.16,156.16c1.074,14.186,4.368,28.115,9.76,41.28
	c6.08,17.84,12.4,36.24,7.2,48c-0.88,2.08-5.92,2.08-12.8,2c-9.669-1.408-19.494,1.193-27.2,7.2c-9.76,9.68-10.16,24-10.56,38.16
	c0,12.48-0.72,24-7.6,29.6c-13.2,10.16-38.32,14.8-76,14.24c-4.418,0-8,3.582-8,8l-0.72,70.08c0,4.418,3.582,8,8,8s8-3.582,8-8
	l0.64-62.08c25.68,0,58.4-2.64,77.92-17.6c12.48-9.52,13.04-26.48,13.04-41.44c0-11.36,0.64-22.08,5.84-27.2
	c2.8-2.8,9.36-2.72,16-2.56c9.52,0,22.48,0,27.68-11.6c8-17.68,0-39.04-6.72-59.76C431.928,196.716,428.936,184.558,427.767,172.16
	L427.767,172.16z M207.287,436.16v15.36H36.967V436L207.287,436.16z M190.007,414.4h5.44v5.76H48.807v-5.76h141.28H190.007z
	 M167.767,398.4h-91.36c24.8-33.52,22.88-104,21.2-129.92h49.04c-1.68,25.92-3.6,96.24,21.2,129.76L167.767,398.4z M87.767,252.48
	v-5.76h69.28v5.76h-69.52H87.767z M168.647,224.88v5.76h-92.72v-5.76h92.4H168.647z M142.487,95.28v5.84c-2.72,0-6-0.8-9.52-1.04
	c-2.345-0.194-4.657,0.655-6.32,2.32c-1.665,1.663-2.514,3.975-2.32,6.32c0.4,5.36,1.04,13.04,1.6,19.52
	c0.321,3.529,2.925,6.426,6.4,7.12c13.347,2.88,24.92,11.126,32,22.8c-13.535,13.718-21.999,31.633-24,50.8h-36.72
	c-2.007-19.165-10.47-37.078-24-50.8c7.094-11.661,18.661-19.903,32-22.8c3.501-0.703,6.113-3.641,6.4-7.2
	c0.56-6.48,1.2-14.24,1.6-19.6c0.17-2.318-0.677-4.596-2.32-6.24c-1.644-1.643-3.922-2.49-6.24-2.32c-3.36,0-6.56,0.56-9.6,1.04
	v-5.76c3.147,0.48,6.4,0.827,9.76,1.04c4.407,0.321,8.239-2.991,8.56-7.398c0.028-0.387,0.028-0.775,0-1.162
	c0-3.36-0.56-6.64-1.04-9.76h5.6c-0.48,3.12-0.8,6.32-1.04,9.68c-0.17,2.318,0.677,4.596,2.32,6.24
	c1.644,1.643,3.922,2.49,6.24,2.32c4.32-0.32,7.52-0.72,10.32-1.04L142.487,95.28z"/>
<g>
</g>
<g>
</g>
<g>
</g>
<g>
</g>
<g>
</g>
<g>
</g>
<g>
</g>
<g>
</g>
<g>
</g>
<g>
</g>
<g>
</g>
<g>
</g>
<g>
</g>
<g>
</g>
<g>
</g>
</svg>
