<svg height="464pt" viewBox="0 -48 464.00002 464" width="464pt" xmlns="http://www.w3.org/2000/svg"><path d="m151.007812 320h24.992188v48h-24.992188c-8.289062 0-15.007812-6.71875-15.007812-15.007812v-17.984376c0-8.289062 6.71875-15.007812 15.007812-15.007812zm0 0" fill="#75acff"/><path d="m176 320h16l35.511719-23.675781c6.898437-4.597657 16.214843-2.734375 20.8125 4.164062l.851562 1.273438c3.96875 5.953125 3.183594 13.878906-1.875 18.9375l-7.300781 7.300781h32l27.726562-16.636719c6.871094-4.121093 15.769532-2.121093 20.210938 4.542969 4.496094 6.742188 2.828125 15.832031-3.761719 20.539062l-44.175781 31.554688h-96zm0 0" fill="#ffd7a8"/><path d="m312.992188 48h-24.992188v-48h24.992188c8.289062 0 15.007812 6.71875 15.007812 15.007812v17.984376c0 8.289062-6.71875 15.007812-15.007812 15.007812zm0 0" fill="#75acff"/><path d="m288 48h-16l-35.511719 23.675781c-6.898437 4.597657-16.214843 2.734375-20.8125-4.164062l-.851562-1.273438c-3.96875-5.953125-3.183594-13.878906 1.875-18.9375l7.300781-7.300781h-32l-27.726562 16.636719c-6.871094 4.121093-15.769532 2.121093-20.210938-4.542969-4.496094-6.742188-2.828125-15.832031 3.761719-20.539062l44.175781-31.554688h96zm0 0" fill="#ffd7a8"/><path d="m120 112h224c8.835938 0 16 7.164062 16 16v112c0 8.835938-7.164062 16-16 16h-224c-8.835938 0-16-7.164062-16-16v-112c0-8.835938 7.164062-16 16-16zm0 0" fill="#efefef"/><path d="m360 208c-26.507812 0-48 21.492188-48 48h32c8.835938 0 16-7.164062 16-16zm0 0" fill="#73c97c"/><path d="m152 112h-32c-8.835938 0-16 7.164062-16 16v32c26.507812 0 48-21.492188 48-48zm0 0" fill="#73c97c"/><path d="m272 184c0 22.089844-17.910156 40-40 40s-40-17.910156-40-40 17.910156-40 40-40 40 17.910156 40 40zm0 0" fill="#73c97c"/><path d="m312 80h144c4.417969 0 8 3.582031 8 8v80c0 4.417969-3.582031 8-8 8h-144c-4.417969 0-8-3.582031-8-8v-80c0-4.417969 3.582031-8 8-8zm0 0" fill="#efefef"/><g fill="#73c97c"><path d="m400 128c0 8.835938-7.164062 16-16 16s-16-7.164062-16-16 7.164062-16 16-16 16 7.164062 16 16zm0 0"/><path d="m304 112c17.671875 0 32-14.328125 32-32h-24c-4.417969 0-8 3.582031-8 8zm0 0"/><path d="m464 112c-17.671875 0-32-14.328125-32-32h24c4.417969 0 8 3.582031 8 8zm0 0"/><path d="m464 144c-17.671875 0-32 14.328125-32 32h24c4.417969 0 8-3.582031 8-8zm0 0"/><path d="m304 144v24c0 4.417969 3.582031 8 8 8h24c0-17.671875-14.328125-32-32-32zm0 0"/></g><path d="m8 192h144c4.417969 0 8 3.582031 8 8v80c0 4.417969-3.582031 8-8 8h-144c-4.417969 0-8-3.582031-8-8v-80c0-4.417969 3.582031-8 8-8zm0 0" fill="#efefef"/><path d="m96 240c0 8.835938-7.164062 16-16 16s-16-7.164062-16-16 7.164062-16 16-16 16 7.164062 16 16zm0 0" fill="#73c97c"/><path d="m0 224c17.671875 0 32-14.328125 32-32h-24c-4.417969 0-8 3.582031-8 8zm0 0" fill="#73c97c"/><path d="m160 224c-17.671875 0-32-14.328125-32-32h24c4.417969 0 8 3.582031 8 8zm0 0" fill="#73c97c"/><path d="m160 256c-17.671875 0-32 14.328125-32 32h24c4.417969 0 8-3.582031 8-8zm0 0" fill="#73c97c"/><path d="m0 256v24c0 4.417969 3.582031 8 8 8h24c0-17.671875-14.328125-32-32-32zm0 0" fill="#73c97c"/></svg>