<svg height="464pt" viewBox="0 -52 464 464" width="464pt" xmlns="http://www.w3.org/2000/svg"><path d="m16 0h160c8.835938 0 16 7.164062 16 16v248h-192v-248c0-8.835938 7.164062-16 16-16zm0 0" fill="#75c1ff"/><path d="m80 24h32v16h-32zm0 0" fill="#5e9acc"/><path d="m0 264h192v64c0 8.835938-7.164062 16-16 16h-160c-8.835938 0-16-7.164062-16-16zm0 0" fill="#efefef"/><path d="m32 296h24v16h-24zm0 0" fill="#bcbcbc"/><path d="m136 296h24v16h-24zm0 0" fill="#bcbcbc"/><path d="m112 304c0 8.835938-7.164062 16-16 16s-16-7.164062-16-16 7.164062-16 16-16 16 7.164062 16 16zm0 0" fill="#bcbcbc"/><path d="m136 128v-8c-.011719-8.832031-7.167969-15.988281-16-16h-16v-16h-16v16h-16c-8.832031.011719-15.988281 7.167969-16 16v24c.011719 8.832031 7.167969 15.988281 16 16h16v24h-16v-8h-16v8c.011719 8.832031 7.167969 15.988281 16 16h16v16h16v-16h16c8.832031-.011719 15.988281-7.167969 16-16v-24c-.011719-8.832031-7.167969-15.988281-16-16h-16v-24h16v8zm-16 32v24h-16v-24zm-32-16h-16v-24h16zm0 0" fill="#ffd04a"/><path d="m240 0h208c8.835938 0 16 7.164062 16 16v112c0 8.835938-7.164062 16-16 16h-208c-8.835938 0-16-7.164062-16-16v-112c0-8.835938 7.164062-16 16-16zm0 0" fill="#efefef"/><g fill="#73c97c"><path d="m272 144c0-26.507812-21.492188-48-48-48v32c0 8.835938 7.164062 16 16 16zm0 0"/><path d="m224 48c26.507812 0 48-21.492188 48-48h-32c-8.835938 0-16 7.164062-16 16zm0 0"/><path d="m416 144h32c8.835938 0 16-7.164062 16-16v-32c-26.507812 0-48 21.492188-48 48zm0 0"/><path d="m416 0c0 26.507812 21.492188 48 48 48v-32c0-8.835938-7.164062-16-16-16zm0 0"/><path d="m384 72c0 22.089844-17.910156 40-40 40s-40-17.910156-40-40 17.910156-40 40-40 40 17.910156 40 40zm0 0"/></g><path d="m412.46875 272h-88.9375c-6.886719 0-13-4.40625-15.179688-10.941406l-21.332031-64c-1.625-4.878906-.808593-10.242188 2.199219-14.414063s7.835938-6.644531 12.980469-6.644531h131.601562c5.144531 0 9.972657 2.472656 12.980469 6.644531s3.824219 9.535157 2.199219 14.414063l-21.332031 64c-2.179688 6.535156-8.292969 10.941406-15.179688 10.941406zm0 0" fill="#ff675b"/><path d="m448 312h-148.238281c-10.507813.035156-19.808594-6.800781-22.90625-16.84375l-32.984375-105.546875c-1.035156-3.34375-4.132813-5.621094-7.632813-5.609375h-20.238281v-16h20.238281c10.507813-.035156 19.808594 6.800781 22.90625 16.84375l32.984375 105.546875c1.035156 3.34375 4.132813 5.621094 7.632813 5.609375h148.238281zm0 0" fill="#898989"/><path d="m312 360c-8.835938 0-16-7.164062-16-16s7.164062-16 16-16 16 7.164062 16 16c-.011719 8.832031-7.167969 15.988281-16 16zm0-16.007812" fill="#898989"/><path d="m416 360c-8.835938 0-16-7.164062-16-16s7.164062-16 16-16 16 7.164062 16 16c-.011719 8.832031-7.167969 15.988281-16 16zm0-16.007812" fill="#898989"/><path d="m293.335938 216h149.328124l5.335938-16h-160zm0 0" fill="#ba4a43"/></svg>