<svg height="464pt" viewBox="0 -40 464 464" width="464pt" xmlns="http://www.w3.org/2000/svg"><path d="m16 0h176c8.835938 0 16 7.164062 16 16v288h-208v-288c0-8.835938 7.164062-16 16-16zm0 0" fill="#75c1ff"/><path d="m0 304h208v64c0 8.835938-7.164062 16-16 16h-176c-8.835938 0-16-7.164062-16-16zm0 0" fill="#efefef"/><path d="m120 344c0 8.835938-7.164062 16-16 16s-16-7.164062-16-16 7.164062-16 16-16 16 7.164062 16 16zm0 0" fill="#bcbcbc"/><path d="m40 336h24v16h-24zm0 0" fill="#bcbcbc"/><path d="m144 336h24v16h-24zm0 0" fill="#bcbcbc"/><path d="m88 24h32v16h-32zm0 0" fill="#5e9acc"/><path d="m232 80c0-44.183594 35.816406-80 80-80s80 35.816406 80 80h16c30.929688 0 56 25.070312 56 56s-25.070312 56-56 56h-192c-30.929688 0-56-25.070312-56-56s25.070312-56 56-56zm0 0" fill="#ffd04a"/><path d="m256 128h112c8.835938 0 16 7.164062 16 16v224c0 8.835938-7.164062 16-16 16h-112c-8.835938 0-16-7.164062-16-16v-224c0-8.835938 7.164062-16 16-16zm0 0" fill="#efefef"/><g fill="#73c97c"><path d="m240 176c26.507812 0 48-21.492188 48-48h-32c-8.835938 0-16 7.164062-16 16zm0 0"/><path d="m336 128c0 26.507812 21.492188 48 48 48v-32c0-8.835938-7.164062-16-16-16zm0 0"/><path d="m240 336v32c0 8.835938 7.164062 16 16 16h32c0-26.507812-21.492188-48-48-48zm0 0"/><path d="m384 336c-26.507812 0-48 21.492188-48 48h32c8.835938 0 16-7.164062 16-16zm0 0"/><path d="m352 256c0 22.089844-17.910156 40-40 40s-40-17.910156-40-40 17.910156-40 40-40 40 17.910156 40 40zm0 0"/></g></svg>