<svg height="464pt" viewBox="-80 0 464 464" width="464pt" xmlns="http://www.w3.org/2000/svg"><path d="m16 0h272c8.835938 0 16 7.164062 16 16v368h-304v-368c0-8.835938 7.164062-16 16-16zm0 0" fill="#75c1ff"/><path d="m0 384h304v64c0 8.835938-7.164062 16-16 16h-272c-8.835938 0-16-7.164062-16-16zm0 0" fill="#efefef"/><g fill="#bcbcbc"><path d="m56 416h32v16h-32zm0 0"/><path d="m216 416h32v16h-32zm0 0"/><path d="m168 424c0 8.835938-7.164062 16-16 16s-16-7.164062-16-16 7.164062-16 16-16 16 7.164062 16 16zm0 0"/></g><path d="m240 136c0 48.601562-39.398438 88-88 88s-88-39.398438-88-88 39.398438-88 88-88 88 39.398438 88 88zm0 0" fill="#ffd04a"/><path d="m192 112v-8c-.011719-8.832031-7.167969-15.988281-16-16h-16v-16h-16v16h-16c-8.832031.011719-15.988281 7.167969-16 16v24c.011719 8.832031 7.167969 15.988281 16 16h16v24h-16v-8h-16v8c.011719 8.832031 7.167969 15.988281 16 16h16v16h16v-16h16c8.832031-.011719 15.988281-7.167969 16-16v-24c-.011719-8.832031-7.167969-15.988281-16-16h-16v-24h16v8zm-16 32v24h-16v-24zm-32-16h-16v-24h16zm0 0" fill="#997d2c"/><path d="m71.007812 288h24.992188v48h-24.992188c-8.289062 0-15.007812-6.71875-15.007812-15.007812v-17.984376c0-8.289062 6.71875-15.007812 15.007812-15.007812zm0 0" fill="#efefef"/><path d="m96 288h16l35.511719-23.675781c6.898437-4.597657 16.214843-2.734375 20.8125 4.164062l.851562 1.273438c3.96875 5.953125 3.183594 13.878906-1.875 18.9375l-7.300781 7.300781h32l27.726562-16.636719c6.871094-4.121093 15.769532-2.121093 20.210938 4.542969 4.496094 6.742188 2.828125 15.832031-3.761719 20.539062l-44.175781 31.554688h-96zm0 0" fill="#ffd7a8"/></svg>