<svg height="464pt" viewBox="0 0 464.01371 464" width="464pt" xmlns="http://www.w3.org/2000/svg"><path d="m376 96.007812c49.601562 1.339844 88.863281 42.386719 88 92 0 44-40 84-88 84h-312c-35.347656 0-64-24-64-56 0-35.347656 28.652344-64 64-64 0-30.929687 25.070312-56 56-56h24c0-53.019531 42.980469-95.9999995 96-95.9999995s96 42.9804685 96 95.9999995zm0 0" fill="#75c1ff"/><path d="m120 208.007812h112c8.835938 0 16 7.164063 16 16v224c0 8.835938-7.164062 16-16 16h-112c-8.835938 0-16-7.164062-16-16v-224c0-8.835937 7.164062-16 16-16zm0 0" fill="#efefef"/><g fill="#73c97c"><path d="m248 416.007812c-26.507812 0-48 21.488282-48 48h32c8.835938 0 16-7.164062 16-16zm0 0"/><path d="m152 464.007812c0-26.511718-21.492188-48-48-48v32c0 8.835938 7.164062 16 16 16zm0 0"/><path d="m248 256.007812v-32c0-8.835937-7.164062-16-16-16h-32c0 26.507813 21.492188 48 48 48zm0 0"/><path d="m104 256.007812c26.507812 0 48-21.492187 48-48h-32c-8.835938 0-16 7.164063-16 16zm0 0"/><path d="m216 336.007812c0 22.089844-17.910156 40-40 40s-40-17.910156-40-40c0-22.09375 17.910156-40 40-40s40 17.90625 40 40zm0 0"/></g><path d="m288 160.007812h80c4.417969 0 8 3.582032 8 8v160c0 4.417969-3.582031 8-8 8h-80c-4.417969 0-8-3.582031-8-8v-160c0-4.417968 3.582031-8 8-8zm0 0" fill="#efefef"/><path d="m352 248.007812c0 13.253907-10.746094 24-24 24s-24-10.746093-24-24c0-13.253906 10.746094-24 24-24s24 10.746094 24 24zm0 0" fill="#73c97c"/><path d="m344 160.007812c0 17.671876 14.328125 32 32 32v-24c0-4.417968-3.582031-8-8-8zm0 0" fill="#73c97c"/><path d="m376 304.007812c-17.671875 0-32 14.324219-32 32h24c4.417969 0 8-3.582031 8-8zm0 0" fill="#73c97c"/><path d="m312 160.007812h-24c-4.417969 0-8 3.582032-8 8v24c17.671875 0 32-14.328124 32-32zm0 0" fill="#73c97c"/><path d="m312 336.007812c0-17.675781-14.328125-32-32-32v24c0 4.417969 3.582031 8 8 8zm0 0" fill="#73c97c"/></svg>