<svg height="464pt" viewBox="0 -16 464 464" width="464pt" xmlns="http://www.w3.org/2000/svg"><path d="m16 0h192c8.835938 0 16 7.164062 16 16v256h-224v-256c0-8.835938 7.164062-16 16-16zm0 0" fill="#75c1ff"/><path d="m0 272h224v64c0 8.835938-7.164062 16-16 16h-192c-8.835938 0-16-7.164062-16-16zm0 0" fill="#d6d6d6"/><path d="m128 312c0 8.835938-7.164062 16-16 16s-16-7.164062-16-16 7.164062-16 16-16 16 7.164062 16 16zm0 0" fill="#a3a3a3"/><path d="m48 304h24v16h-24zm0 0" fill="#a3a3a3"/><path d="m96 24h32v16h-32zm0 0" fill="#5e9acc"/><path d="m176 240h272c8.835938 0 16 7.164062 16 16v160c0 8.835938-7.164062 16-16 16h-272c-8.835938 0-16-7.164062-16-16v-160c0-8.835938 7.164062-16 16-16zm0 0" fill="#efefef"/><path d="m216 288h24c8.835938 0 16 7.164062 16 16v24c0 8.835938-7.164062 16-16 16h-24c-8.835938 0-16-7.164062-16-16v-24c0-8.835938 7.164062-16 16-16zm0 0" fill="#ffd04a"/><g fill="#bcbcbc"><path d="m424 280h16v16h-16zm0 0"/><path d="m320 280h88v16h-88zm0 0"/><path d="m288 280h16v16h-16zm0 0"/><path d="m424 312h16v16h-16zm0 0"/><path d="m320 312h88v16h-88zm0 0"/><path d="m288 312h16v16h-16zm0 0"/><path d="m424 344h16v16h-16zm0 0"/><path d="m320 344h88v16h-88zm0 0"/><path d="m288 344h16v16h-16zm0 0"/><path d="m192 376h16v16h-16zm0 0"/><path d="m424 376h16v16h-16zm0 0"/><path d="m224 376h184v16h-184zm0 0"/></g></svg>