<?xml version="1.0" encoding="iso-8859-1"?>
<!-- Generator: Adobe Illustrator 19.0.0, SVG Export Plug-In . SVG Version: 6.00 Build 0)  -->
<svg version="1.1" id="Capa_1" xmlns="http://www.w3.org/2000/svg" xmlns:xlink="http://www.w3.org/1999/xlink" x="0px" y="0px"
	 viewBox="0 0 414.08 414.08" style="enable-background:new 0 0 414.08 414.08;" xml:space="preserve">
<path style="fill:#CC9640;" d="M52.736,307.28l-2.32-2.08c-12.56-11.52-52.48-51.92-38.24-88.64c4.91-14.26,15.512-25.846,29.28-32
	c8.615-3.576,17.873-5.346,27.2-5.2c10.289,0.117,20.515,1.624,30.4,4.48l8,2.32l-2.72,8c-3.323,9.859-4.815,20.244-4.4,30.64
	c1.119,25.636,11.296,50.043,28.72,68.88l12.48,13.44L52.736,307.28z"/>
<path style="fill:#FFCF70;" d="M61.296,406.08c-4.904,0-8.88-3.976-8.88-8.88l0,0v-40.56h132.24l0.48,7.44
	c0.497,10.482,3.224,20.737,8,30.08l6.72,11.92H61.296z"/>
<g>
	<path style="fill:#CC9640;" d="M206.976,307.28V166.56l4.32-2.24c12.882-6.758,27.139-10.48,41.68-10.88
		c13.907-0.139,27.408,4.683,38.08,13.6c16.216,14.791,24.616,36.293,22.72,58.16c-1.29,31.705-16.478,61.232-41.52,80.72l-2.16,1.6
		L206.976,307.28z"/>
	<path style="fill:#CC9640;" d="M143.856,307.28l-2.16-1.6c-25.042-19.488-40.23-49.015-41.52-80.72
		c-1.807-21.784,6.584-43.175,22.72-57.92c10.699-8.778,24.162-13.483,38-13.28c14.541,0.4,28.798,4.122,41.68,10.88l4.32,2.24
		v140.4H143.856z"/>
</g>
<g>
	<path style="fill:#FFCF70;" d="M203.216,164.64c-9.34-4.876-19.379-8.276-29.76-10.08l-12.88-2.16l46.4-62.72l46.4,62.72
		l-12.88,2.16c-10.408,1.799-20.474,5.199-29.84,10.08l-3.68,1.92L203.216,164.64z"/>
	<path style="fill:#FFCF70;" d="M52.416,356.64v-40.56c0-4.904,3.976-8.88,8.88-8.88l0,0h138.48l-6.64,11.84
		c-4.774,9.344-7.501,19.599-8,30.08l-0.48,7.44L52.416,356.64z"/>
</g>
<g>
	<path style="fill:#CC9640;" d="M272.576,307.28l12.48-13.44c17.424-18.837,27.601-43.244,28.72-68.88
		c0.409-10.396-1.082-20.779-4.4-30.64l-2.72-8l8-2.32c9.885-2.857,20.111-4.364,30.4-4.48c9.354-0.157,18.64,1.613,27.28,5.2
		c13.768,6.154,24.37,17.74,29.28,32c14.32,36.64-25.6,77.12-38.24,88.64l-2.32,2.08L272.576,307.28z"/>
	<ellipse style="fill:#CC9640;" cx="208.335" cy="356.64" rx="23.52" ry="49.44"/>
</g>
<g>
	<path style="fill:#FFCF70;" d="M232.096,356.64l-0.48-7.44c-0.499-10.481-3.226-20.736-8-30.08l-6.72-11.92h136
		c4.904,0,8.88,3.976,8.88,8.88l0,0v40.56H232.096z"/>
	<path style="fill:#FFCF70;" d="M216.896,406.08l6.72-11.92c4.776-9.343,7.503-19.598,8-30.08l0.48-7.44h129.36v40.56
		c0,4.904-3.976,8.88-8.88,8.88l0,0H216.896z"/>
</g>
<path style="fill:#35231A;" d="M375.535,177.28c-24.56-10.64-52.72-4.16-65.36,0c-3.698-6.248-8.432-11.82-14-16.48
	c-10.697-8.827-23.917-14.036-37.76-14.88l-43.44-58.88v-41.2h31.28c4.418,0,8-3.582,8-8s-3.582-8-8-8h-31.28V8c0-4.418-3.582-8-8-8
	s-8,3.582-8,8v21.84h-31.28c-4.418,0-8,3.582-8,8s3.582,8,8,8h31.28v41.2l-43.36,58.64c-13.843,0.844-27.063,6.053-37.76,14.88
	c-5.568,4.66-10.302,10.232-14,16.48c-12.64-3.92-40.8-10.32-65.36,0c-15.743,6.936-27.909,20.085-33.6,36.32
	c-16.72,42.96,29.2,87.76,40.4,97.68c-0.511,1.577-0.78,3.222-0.8,4.88v81.28c0,9.323,7.557,16.88,16.88,16.88c0,0,0,0,0,0h291.28
	c9.323,0,16.88-7.557,16.88-16.88l0,0v-81.12c-0.02-1.658-0.289-3.303-0.8-4.88c11.2-10.08,57.12-54.96,40.48-97.6
	C403.506,197.35,391.309,184.198,375.535,177.28L375.535,177.28z M286.016,172.96c14.24,13.234,21.538,32.322,19.76,51.68
	c-1.116,29.32-15.145,56.645-38.32,74.64h-52.48v-128c11.775-6.166,24.794-9.585,38.08-10
	C265.079,161.143,276.761,165.283,286.016,172.96L286.016,172.96z M206.976,103.04l32,43.52c-11.167,1.985-21.961,5.682-32,10.96
	c-10.038-5.28-20.832-8.977-32-10.96L206.976,103.04z M127.936,172.88c9.288-7.591,20.966-11.644,32.96-11.44
	c13.286,0.415,26.305,3.834,38.08,10v128h-52.48c-23.184-17.988-37.215-45.317-38.32-74.64c-1.829-19.412,5.474-38.571,19.76-51.84
	L127.936,172.88z M19.696,219.44c4.185-12.194,13.216-22.122,24.96-27.44c18.48-8,40.88-3.6,52.32,0
	c-3.618,10.762-5.245,22.094-4.8,33.44c1.15,27.566,12.067,53.824,30.8,74.08h-67.12C46.176,290.4,6.976,251.84,19.696,219.44
	L19.696,219.44z M61.296,398.08c-0.486,0-0.88-0.394-0.88-0.88l0,0v-32.56h116.72c0.531,11.664,3.588,23.073,8.96,33.44H61.296z
	 M177.135,348.64H60.415v-32.56c0-0.486,0.394-0.88,0.88-0.88l0,0h124.8C180.726,325.567,177.669,336.977,177.135,348.64z
	 M208.335,398.08c-6.16,0-15.52-16.48-15.52-41.44s9.36-41.44,15.52-41.44s15.52,16.56,15.52,41.44S214.495,398.08,208.335,398.08z
	 M353.455,397.2c0.047,0.439-0.272,0.833-0.711,0.88c-0.056,0.006-0.113,0.006-0.169,0h-121.6c5.37-10.367,8.427-21.777,8.96-33.44
	h113.52L353.455,397.2z M353.455,348.64h-113.92c-0.423-11.606-3.342-22.984-8.56-33.36h121.68c0.486,0,0.88,0.394,0.88,0.88l0,0
	L353.455,348.64z M358.015,299.2h-67.12c18.733-20.256,29.65-46.514,30.8-74.08c0.44-11.345-1.187-22.676-4.8-33.44
	c11.44-3.28,33.76-8,52.32,0c11.744,5.318,20.775,15.246,24.96,27.44c12.8,32.72-26.4,71.28-36.08,80.16L358.015,299.2z"/>
<g>
</g>
<g>
</g>
<g>
</g>
<g>
</g>
<g>
</g>
<g>
</g>
<g>
</g>
<g>
</g>
<g>
</g>
<g>
</g>
<g>
</g>
<g>
</g>
<g>
</g>
<g>
</g>
<g>
</g>
</svg>
