<svg height="472pt" viewBox="0 -72 472 472" width="472pt" xmlns="http://www.w3.org/2000/svg"><path d="m152 320c44.183594 0 80-35.816406 80-80s-35.816406-80-80-80h-56c-44.183594 0-80 35.816406-80 80s35.816406 80 80 80zm0 0" fill="#ffa742"/><path d="m240 152h-16v-16c0-4.417969-3.582031-8-8-8s-8 3.582031-8 8v20.6875l-37.65625 37.65625 11.3125 11.3125 37.65625-37.65625h20.6875c4.417969 0 8-3.582031 8-8s-3.582031-8-8-8zm0 0" fill="#efefef"/><path d="m177.222656 260.109375-6.898437-14.4375c9.425781-4.496094 14.867187-14.570313 13.449219-24.921875-1.414063-10.347656-9.359376-18.59375-19.648438-20.390625-10.289062-1.800781-20.558594 3.261719-25.402344 12.515625l-14.171875-7.421875c8.070313-15.421875 25.1875-23.855469 42.332031-20.855469 17.144532 2.996094 30.386719 16.734375 32.746094 33.980469 2.363282 17.242187-6.695312 34.035156-22.40625 41.53125zm0 0" fill="#cc8635"/><g fill="#898989"><path d="m82.34375 125.65625c-11.941406-11.96875-11.941406-31.34375 0-43.3125 5.703125-5.71875 5.703125-14.972656 0-20.6875l11.3125-11.3125c11.941406 11.96875 11.941406 31.34375 0 43.3125-5.703125 5.71875-5.703125 14.972656 0 20.6875zm0 0"/><path d="m122.34375 125.65625c-11.941406-11.96875-11.941406-31.34375 0-43.3125 5.703125-5.71875 5.703125-14.972656 0-20.6875l11.3125-11.3125c11.941406 11.96875 11.941406 31.34375 0 43.3125-5.703125 5.71875-5.703125 14.972656 0 20.6875zm0 0"/><path d="m162.34375 125.65625c-11.941406-11.96875-11.941406-31.34375 0-43.3125 5.703125-5.71875 5.703125-14.972656 0-20.6875l11.3125-11.3125c11.941406 11.96875 11.941406 31.34375 0 43.3125-5.703125 5.71875-5.703125 14.972656 0 20.6875zm0 0"/></g><path d="m0 312h248v16h-248zm0 0" fill="#bcbcbc"/><path d="m296 0h160c8.835938 0 16 7.164062 16 16v224h-192v-224c0-8.835938 7.164062-16 16-16zm0 0" fill="#75c1ff"/><path d="m360 24h32v16h-32zm0 0" fill="#5e9acc"/><path d="m280 240h192v64c0 8.835938-7.164062 16-16 16h-160c-8.835938 0-16-7.164062-16-16zm0 0" fill="#efefef"/><path d="m312 272h24v16h-24zm0 0" fill="#bcbcbc"/><path d="m416 272h24v16h-24zm0 0" fill="#bcbcbc"/><path d="m392 280c0 8.835938-7.164062 16-16 16s-16-7.164062-16-16 7.164062-16 16-16 16 7.164062 16 16zm0 0" fill="#bcbcbc"/><path d="m416 112v-8c-.011719-8.832031-7.167969-15.988281-16-16h-16v-16h-16v16h-16c-8.832031.011719-15.988281 7.167969-16 16v24c.011719 8.832031 7.167969 15.988281 16 16h16v24h-16v-8h-16v8c.011719 8.832031 7.167969 15.988281 16 16h16v16h16v-16h16c8.832031-.011719 15.988281-7.167969 16-16v-24c-.011719-8.832031-7.167969-15.988281-16-16h-16v-24h16v8zm-16 32v24h-16v-24zm-32-16h-16v-24h16zm0 0" fill="#ffd04a"/></svg>