<?xml version="1.0" encoding="iso-8859-1"?>
<!-- Generator: Adobe Illustrator 19.0.0, SVG Export Plug-In . SVG Version: 6.00 Build 0)  -->
<svg version="1.1" id="Capa_1" xmlns="http://www.w3.org/2000/svg" xmlns:xlink="http://www.w3.org/1999/xlink" x="0px" y="0px"
	 viewBox="0 0 432.074 432.074" style="enable-background:new 0 0 432.074 432.074;" xml:space="preserve">
<path style="fill:#FFCF70;" d="M234.321,98.88c-12.223-1.472-24.577-1.472-36.8,0l-8.88,1.04V61.76h54.56v38.08L234.321,98.88z"/>
<path style="fill:#CC9640;" d="M215.921,373.84c-62.474,0.076-113.182-50.507-113.258-112.981
	c-0.072-59.23,45.556-108.487,104.618-112.939l8.64-0.64v113.44h113.44l-0.64,8.64C323.982,328.206,274.957,373.615,215.921,373.84
	L215.921,373.84z"/>
<g>
	<path style="fill:#FFCF70;" d="M78.561,141.44c-2.015-1.933-3.431-4.405-4.08-7.12l-0.88-4.24l22.32-22.24l4.24,0.88
		c2.744,0.635,5.245,2.052,7.2,4.08l14.64,14.64l-7.04,5.6c-6.107,4.917-11.855,10.264-17.2,16l-5.68,6L78.561,141.44z"/>
	<path style="fill:#FFCF70;" d="M175.041,8.32h81.84c5.037,0,9.12,4.083,9.12,9.12v35.2c0,5.037-4.083,9.12-9.12,9.12h-81.84
		c-5.037,0-9.12-4.083-9.12-9.12v-35.2C165.921,12.403,170.004,8.32,175.041,8.32z"/>
</g>
<path style="fill:#CC9640;" d="M175.041,8.32h81.84c5.037,0,9.12,4.083,9.12,9.12v35.2c0,5.037-4.083,9.12-9.12,9.12h-81.84
	c-5.037,0-9.12-4.083-9.12-9.12v-35.2C165.921,12.403,170.004,8.32,175.041,8.32z"/>
<g>
	<path style="fill:#FFCF70;" d="M334.161,148.88c-5.345-5.736-11.093-11.083-17.2-16l-7.04-5.6l14.72-14.72
		c1.93-2.018,4.403-3.435,7.12-4.08l4.24-0.88l22.16,22.24l-0.88,4.24c-0.635,2.744-2.052,5.245-4.08,7.2l-13.44,13.44
		L334.161,148.88z"/>
	<path style="fill:#FFCF70;" d="M215.921,424c-90,0-162.96-72.96-162.96-162.96c0-90,72.96-162.96,162.96-162.96
		c89.875,0,162.783,72.765,162.959,162.64C378.969,350.809,306.01,423.912,215.921,424C215.921,424,215.921,424,215.921,424z
		 M215.921,147.92c-62.474,0-113.12,50.646-113.12,113.12s50.646,113.12,113.12,113.12c62.474,0,113.12-50.646,113.12-113.12
		c0-0.107,0-0.213,0-0.32h-113.12V147.92z"/>
</g>
<g>
	<path style="fill:#35231A;" d="M358.881,147.12c3.235-3.168,5.438-7.239,6.32-11.68c1.048-4.865-0.391-9.933-3.84-13.52
		l-17.44-17.28c-2.757-2.684-6.473-4.153-10.32-4.08c-5.615,0.181-10.932,2.567-14.8,6.64l-10.08,10.16
		c-17.53-11.478-37.031-19.615-57.52-24v-24h5.68c9.455,0,17.12-7.665,17.12-17.12v-34.8c0.177-9.453-7.344-17.26-16.797-17.437
		C257.096,0.001,256.988,0,256.881,0h-81.92c-9.455,0-17.12,7.665-17.12,17.12V52.4c0,9.455,7.665,17.12,17.12,17.12h5.68v24
		c-20.489,4.387-39.99,12.524-57.52,24l-10.24-10.32c-6.338-7.311-17.269-8.432-24.96-2.56l-17.36,17.28
		c-3.449,3.587-4.888,8.655-3.84,13.52c0.882,4.441,3.085,8.512,6.32,11.68l8.48,8.48c-58.27,74.293-45.28,181.757,29.013,240.027
		s181.757,45.28,240.027-29.013c48.587-61.947,48.587-149.066,0-211.014L358.881,147.12z M330.241,118.48
		c0.842-0.917,1.922-1.581,3.12-1.92l16,16c-0.339,1.198-1.003,2.278-1.92,3.12l-8,8c-5.624-5.944-11.666-11.478-18.08-16.56
		L330.241,118.48z M174.961,53.76c-0.619,0-1.12-0.501-1.12-1.12v-35.2c-0.177-0.593,0.159-1.217,0.752-1.394
		c0.119-0.036,0.244-0.051,0.368-0.046h81.92c0.619,0,1.12,0.501,1.12,1.12V52.4c0,0.619-0.501,1.12-1.12,1.12h-81.92L174.961,53.76
		z M235.201,69.76v21.12c-12.807-1.541-25.753-1.541-38.56,0V69.76L235.201,69.76z M98.481,116.56
		c1.198,0.339,2.278,1.003,3.12,1.92l8,8c-6.414,5.082-12.456,10.616-18.08,16.56l-8-8c-0.917-0.842-1.581-1.922-1.92-3.12
		L98.481,116.56z M370.881,260.56c0.088,85.582-69.218,155.032-154.8,155.12c-85.582,0.088-155.032-69.218-155.12-154.8
		c-0.088-85.582,69.218-155.032,154.8-155.12c0.053,0,0.107,0,0.16,0c85.545,0.088,154.872,69.415,154.96,154.96V260.56z"/>
	<path style="fill:#35231A;" d="M223.921,147.6c0-4.418-3.582-8-8-8c-66.893,0-121.12,54.227-121.12,121.12
		s54.227,121.12,121.12,121.12s121.12-54.227,121.12-121.12l0,0c0-4.418-3.582-8-8-8h-105.12V147.6z M320.721,268.72
		c-4.409,57.888-54.911,101.242-112.8,96.833c-57.889-4.409-101.242-54.911-96.833-112.8c3.942-51.758,45.074-92.89,96.833-96.833
		v104.8c0,4.418,3.582,8,8,8H320.721z"/>
</g>
<g>
</g>
<g>
</g>
<g>
</g>
<g>
</g>
<g>
</g>
<g>
</g>
<g>
</g>
<g>
</g>
<g>
</g>
<g>
</g>
<g>
</g>
<g>
</g>
<g>
</g>
<g>
</g>
<g>
</g>
</svg>
