<svg height="464pt" viewBox="-8 0 464 464" width="464pt" xmlns="http://www.w3.org/2000/svg"><path d="m80 0h272c8.835938 0 16 7.164062 16 16v368h-304v-368c0-8.835938 7.164062-16 16-16zm0 0" fill="#75c1ff"/><path d="m64 384h304v64c0 8.835938-7.164062 16-16 16h-272c-8.835938 0-16-7.164062-16-16zm0 0" fill="#efefef"/><path d="m120 416h32v16h-32zm0 0" fill="#bcbcbc"/><path d="m280 416h32v16h-32zm0 0" fill="#bcbcbc"/><path d="m232 424c0 8.835938-7.164062 16-16 16s-16-7.164062-16-16 7.164062-16 16-16 16 7.164062 16 16zm0 0" fill="#bcbcbc"/><path d="m128 168h304c8.835938 0 16 7.164062 16 16v144c0 8.835938-7.164062 16-16 16h-304c-8.835938 0-16-7.164062-16-16v-144c0-8.835938 7.164062-16 16-16zm0 0" fill="#efefef"/><g fill="#73c97c"><path d="m112 280c35.347656 0 64 28.652344 64 64h-48c-8.835938 0-16-7.164062-16-16zm0 0"/><path d="m448 232c-35.347656 0-64-28.652344-64-64h48c8.835938 0 16 7.164062 16 16zm0 0"/><path d="m448 280c-35.347656 0-64 28.652344-64 64h48c8.835938 0 16-7.164062 16-16zm0 0"/><path d="m328 256c0 26.507812-21.492188 48-48 48s-48-21.492188-48-48 21.492188-48 48-48 48 21.492188 48 48zm0 0"/></g><path d="m24 128h160v104c0 8.835938-7.164062 16-16 16h-128c-8.835938 0-16-7.164062-16-16zm0 0" fill="#ffd7a8"/><path d="m184 112v-72c0-4.417969-3.582031-8-8-8h-16c-4.417969 0-8 3.582031-8 8v72zm0 0" fill="#ffd7a8"/><path d="m104 128h104l-104-88-104 88zm0 0" fill="#ff675b"/><path d="m88 176h32c4.417969 0 8 3.582031 8 8v64h-48v-64c0-4.417969 3.582031-8 8-8zm0 0" fill="#b39676"/></svg>