<?xml version="1.0" encoding="iso-8859-1"?>
<!-- Generator: Adobe Illustrator 19.0.0, SVG Export Plug-In . SVG Version: 6.00 Build 0)  -->
<svg version="1.1" id="Capa_1" xmlns="http://www.w3.org/2000/svg" xmlns:xlink="http://www.w3.org/1999/xlink" x="0px" y="0px"
	 viewBox="0 0 450.595 450.595" style="enable-background:new 0 0 450.595 450.595;" xml:space="preserve">
<path style="fill:#CC9640;" d="M132.243,11.577h132.72v124.24h-132.72V11.577z"/>
<g>
	<path style="fill:#FFFFFF;" d="M264.883,135.817V11.577h115.2c4.975,0.043,8.997,4.065,9.04,9.04v115.2H264.883z"/>
	<path style="fill:#FFFFFF;" d="M132.243,268.537v-132.72h132.64v116.56l-0.72,1.6c-1.389,2.972-2.617,6.016-3.68,9.12l-1.84,5.44
		H132.243z"/>
</g>
<g>
	<path style="fill:#CC9640;" d="M132.243,393.097v-124.56h126.16l-1.6,9.36c-2.218,14.354-1.811,28.991,1.2,43.2v0.96v0.56v0.48
		c1.529,7.095,3.56,14.073,6.08,20.88l0.48,1.36v47.76H132.243z"/>
	<path style="fill:#CC9640;" d="M264.883,135.817h124.24v56.72l-9.28-1.52c-4.522-0.743-9.097-1.118-13.68-1.12
		c-13.799,0.202-27.412,3.224-40,8.88c-9.942,4.501-19.404,9.995-28.24,16.4c-6.59,4.661-12.652,10.026-18.08,16l-14,16
		L264.883,135.817z"/>
</g>
<g>
	<path style="fill:#FFFFFF;" d="M8.003,135.817v-115.2c0.043-4.975,4.065-8.997,9.04-9.04h115.2v124.24H8.003z"/>
	<path style="fill:#FFFFFF;" d="M17.043,393.097c-4.975-0.043-8.997-4.065-9.04-9.04v-115.52h124.24v124.56H17.043z"/>
</g>
<path style="fill:#CC9640;" d="M8.003,135.817h124.24v132.72H8.003L8.003,135.817z"/>
<g>
	<path style="fill:#FFCF70;" d="M309.443,393.577l-2.32-2.32c-6.64-6.64-27.12-32-13.68-85.2
		c10.56-41.045,41.181-73.954,81.36-87.44l4.16-1.36l26.56,21.76l0.72,2c10.22,20.952,21.625,41.305,34.16,60.96l2.56,4.16
		l-18.08,30.16l-30.8-13.92l-2.4-23.44l-21.76-8l-4.32-23.52l-10.16,23.52l1.12,1.52c14.64,20.88,40,57.12,46,66s2,22.16-2.88,30.88
		l-2.32,4.08L309.443,393.577z"/>
	<path style="fill:#FFCF70;" d="M291.043,393.577h120.32v22.48h-120.32V393.577z"/>
</g>
<path style="fill:#CC9640;" d="M277.523,416.057h147.44v22.56h-147.44V416.057z"/>
<g>
	<path style="fill:#FFFFFF;" d="M350.643,284.057l41.12,14.8l5.28,51.36L350.643,284.057z"/>
	<path style="fill:#FFFFFF;" d="M290.323,393.097h-25.44v-41.12l30.48,21.36l0.88,1.92c0.96,2.08,2,3.92,2.96,5.6l9.12,15.2
		L290.323,393.097z"/>
</g>
<path style="fill:#CC9640;" d="M427.763,214.537c-16.492-15.647-38.307-24.453-61.04-24.64c-7.702,0.14-15.358,1.214-22.8,3.2
	l-12.88,3.2l8,8.88c-3.001-2.74-6.719-4.572-10.72-5.28l-2.56-0.48l-2.32,1.04c-9.42,4.425-18.372,9.785-26.72,16l-16,10.8
	l16.8,2.64c-2.65-0.38-5.323-0.568-8-0.56c-2.24,0-4.32,0-6,0h-3.2l-2.08,2.4c-5.329,6.043-9.871,12.736-13.52,19.92
	c-0.96,1.84-1.76,3.76-2.56,5.6l-4.64,12.4l10.4-0.64c-3.465,0.424-6.695,1.969-9.2,4.4l-1.68,1.76l-0.4,2.32
	c-1.597,9.243-2.001,18.654-1.2,28l1.04,13.6l9.84-6.56c-2.444,1.984-4.598,4.3-6.4,6.88l-2.08,2.96l0.88,3.52
	c1.502,6.527,3.453,12.942,5.84,19.2v0.56c1.2,2.96,2.24,5.2,2.88,6.64l0.88,1.92l24,16.56l-2.8-17.68
	c-1.888-15.733-0.692-31.684,3.52-46.96c11.006-42.771,43.706-76.595,86.08-89.04l26.56,21.76l30-17.04L427.763,214.537z"/>
<g>
	<path style="fill:#35231A;" d="M415.683,242.537l23.28-13.2c3.944-1.991,5.528-6.802,3.537-10.747
		c-0.269-0.533-0.596-1.034-0.977-1.493c-11.857-13.784-27.106-24.235-44.24-30.32V20.617c-0.044-9.393-7.647-16.996-17.04-17.04
		h-363.2C7.65,3.621,0.047,11.225,0.003,20.617v363.04c-0.177,9.453,7.343,17.26,16.797,17.437c0.081,0.001,0.162,0.002,0.243,0.003
		h266v7.36h-5.6c-4.418,0-8,3.582-8,8v22.56c0,4.418,3.582,8,8,8h147.52c4.418,0,8-3.582,8-8v-22.96c0-4.418-3.582-8-8-8h-5.6
		v-14.48c0-4.418-3.582-8-8-8h-0.96c4.891-9.988,4.562-21.741-0.88-31.44c-2.64-3.92-8.96-13.12-16-23.52l28.56,12.88
		c0.57,0.199,1.16,0.333,1.76,0.4h0.88c1.842-0.015,3.622-0.665,5.04-1.84c0.291-0.271,0.558-0.565,0.8-0.88
		c0.386-0.365,0.734-0.767,1.04-1.2l17.92-29.84c1.429-2.475,1.429-5.525,0-8C438.643,283.977,422.163,256.217,415.683,242.537
		L415.683,242.537z M124.243,385.097h-107.2c-0.574,0-1.04-0.466-1.04-1.04l0,0v-107.52h108.24V385.097z M124.243,260.857H16.003
		v-117.04h108.24V260.857z M124.243,128.137H16.003V20.617c0-0.574,0.466-1.04,1.04-1.04l0,0h107.2V128.137z M272.883,19.577h107.2
		c0.574,0,1.04,0.466,1.04,1.04c0,0,0,0,0,0v107.2h-108.24L272.883,19.577z M272.883,143.817h108.24v39.36
		c-19.804-3.066-40.073-0.286-58.32,8h-0.8c-10.499,4.907-20.448,10.914-29.68,17.92c-7.099,5.054-13.619,10.876-19.44,17.36
		V143.817z M256.883,385.097h-116.64v-108.56h108.72c-2.4,15.386-1.993,31.079,1.2,46.32c0.027,0.736,0.162,1.463,0.4,2.16
		c1.587,7.447,3.699,14.772,6.32,21.92L256.883,385.097z M256.883,250.937c-1.512,3.232-2.847,6.543-4,9.92h-112.64v-117.04h116.64
		V250.937z M256.883,128.137h-116.64V19.577h116.64V128.137z M272.003,342.617c-2.34-5.939-4.265-12.034-5.76-18.24
		c2.038-3.404,5.211-5.982,8.96-7.28c4.418-0.53,7.57-4.542,7.04-8.96c-0.53-4.418-4.542-7.57-8.96-7.04
		c-3.657,0.503-7.141,1.875-10.16,4c-0.742-8.652-0.366-17.364,1.12-25.92c0,0,3.52-3.6,13.04-1.52
		c4.418,0.928,8.752-1.902,9.68-6.32s-1.902-8.752-6.32-9.68c-3.648-0.804-7.391-1.1-11.12-0.88c0.693-1.707,1.467-3.413,2.32-5.12
		v-0.56c3.279-6.371,7.336-12.31,12.08-17.68c6.364-0.766,12.818-0.082,18.88,2c3.949,1.981,8.757,0.384,10.737-3.565
		c1.981-3.949,0.384-8.757-3.565-10.737c-0.251-0.126-0.509-0.239-0.772-0.338c-2.751-1.164-5.622-2.022-8.56-2.56h0.48
		c7.849-5.686,16.235-10.589,25.04-14.64c3.205,0.509,6.08,2.263,8,4.88c2.364,3.733,7.307,4.844,11.04,2.48
		c3.733-2.364,4.844-7.307,2.48-11.04c-0.741-1.105-1.57-2.149-2.48-3.12c27.198-7.069,56.116,0.471,76.4,19.92l-16,8.96
		l-22.32-18.24c-1.959-1.622-4.572-2.216-7.04-1.6c-44.58,13.458-78.928,49.17-90.64,94.24c-4.505,16.29-5.755,33.307-3.68,50.08
		l-6.88-4.8c-0.64-1.36-1.6-3.52-2.72-6.24L272.003,342.617z M272.883,385.097v-17.76l16,11.36c1.12,2.32,2.24,4.4,3.36,6.32
		c-0.452-0.042-0.908-0.042-1.36,0L272.883,385.097z M411.363,424.457h5.6v6.56h-131.44v-6.56H411.363z M403.363,408.457h-104v-6.48
		h104V408.457z M427.363,317.177l-2.72-8.72c-1.92-3.979-6.703-5.648-10.682-3.728c-3.149,1.52-4.947,4.909-4.438,8.368l2.72,8.72
		l-10.72-4.88l-1.92-18.88c-0.316-3.071-2.371-5.686-5.28-6.72l-17.36-6.32l-3.52-18.96c-0.645-3.454-3.469-6.083-6.96-6.48
		c-3.42-0.281-6.639,1.65-8,4.8l-10.16,23.52c-1.19,2.617-0.885,5.671,0.8,8c0,0.56,40,56,46.96,67.36c4.48,6.72,0,17.28-3.2,22.56
		h-80c-6-6-24-28.88-11.6-77.52c9.846-38.521,38.549-69.423,76.24-82.08l21.52,17.6c10.255,21.435,21.769,42.244,34.48,62.32
		L427.363,317.177z M386.003,320.777l-14.16-20.24l12.56,4.56L386.003,320.777z"/>
	<path style="fill:#35231A;" d="M183.843,108.617c3.181,3.115,8.285,3.061,11.4-0.12c3.115-3.181,3.061-8.285-0.12-11.4
		l-24.88-24.88c-2.874-3.356-7.924-3.747-11.28-0.873s-3.747,7.924-0.873,11.28c0.268,0.313,0.56,0.605,0.873,0.873L183.843,108.617
		z"/>
	<path style="fill:#35231A;" d="M221.523,70.937c3.356,2.874,8.406,2.483,11.28-0.873c2.565-2.995,2.565-7.412,0-10.407l-24.8-24.88
		c-3.356-2.874-8.406-2.483-11.28,0.873c-2.565,2.995-2.565,7.412,0,10.407L221.523,70.937z"/>
	<path style="fill:#35231A;" d="M217.523,104.217c2.874,3.356,7.924,3.747,11.28,0.873c3.356-2.874,3.747-7.924,0.873-11.28
		c-0.268-0.313-0.56-0.605-0.873-0.873l-54.08-53.76c-2.874-3.356-7.924-3.747-11.28-0.873s-3.747,7.924-0.873,11.28
		c0.268,0.313,0.56,0.605,0.873,0.873L217.523,104.217z"/>
	<path style="fill:#35231A;" d="M58.643,239.097c2.874,3.356,7.924,3.747,11.28,0.873s3.747-7.924,0.873-11.28
		c-0.268-0.313-0.56-0.605-0.873-0.873l-24.8-24.88c-3.115-3.203-8.237-3.275-11.44-0.16c-3.203,3.115-3.275,8.237-0.16,11.44
		L58.643,239.097z"/>
	<path style="fill:#35231A;" d="M96.323,201.097c2.874,3.356,7.924,3.747,11.28,0.873c3.356-2.874,3.747-7.924,0.873-11.28
		c-0.268-0.313-0.56-0.605-0.873-0.873l-24.88-24.88c-3.356-2.874-8.406-2.483-11.28,0.873c-2.565,2.995-2.565,7.412,0,10.407
		L96.323,201.097z"/>
	<path style="fill:#35231A;" d="M91.923,234.697c2.874,3.356,7.924,3.747,11.28,0.873c3.356-2.874,3.747-7.924,0.873-11.28
		c-0.268-0.313-0.56-0.605-0.873-0.873l-53.68-53.76c-3.356-2.874-8.406-2.483-11.28,0.873c-2.565,2.995-2.565,7.412,0,10.407
		L91.923,234.697z"/>
	<path style="fill:#35231A;" d="M175.603,335.817c-3.356-2.874-8.406-2.483-11.28,0.873c-2.565,2.995-2.565,7.412,0,10.407
		l24.88,24.88c3.356,2.874,8.406,2.483,11.28-0.873c2.565-2.995,2.565-7.412,0-10.407L175.603,335.817z"/>
	<path style="fill:#35231A;" d="M213.283,298.137c-3.356-2.874-8.406-2.483-11.28,0.873c-2.565,2.995-2.565,7.412,0,10.407
		l24.88,24.88c3.356,2.874,8.406,2.483,11.28-0.873c2.565-2.995,2.565-7.412,0-10.407L213.283,298.137z"/>
	<path style="fill:#35231A;" d="M180.003,302.537c-3.356-2.874-8.406-2.483-11.28,0.873c-2.565,2.995-2.565,7.412,0,10.407
		l53.76,53.76c3.622,2.531,8.609,1.647,11.14-1.975c1.96-2.804,1.919-6.544-0.1-9.305L180.003,302.537z"/>
</g>
<g>
</g>
<g>
</g>
<g>
</g>
<g>
</g>
<g>
</g>
<g>
</g>
<g>
</g>
<g>
</g>
<g>
</g>
<g>
</g>
<g>
</g>
<g>
</g>
<g>
</g>
<g>
</g>
<g>
</g>
</svg>
