<svg height="464pt" viewBox="-64 0 464 464" width="464pt" xmlns="http://www.w3.org/2000/svg"><path d="m320 360v-344c0-8.835938-7.164062-16-16-16h-256c-8.835938 0-16 7.164062-16 16v344zm0 0" fill="#efefef"/><path d="m288 80v232l42.242188 35.203125c3.648437 3.039063 5.757812 7.542969 5.757812 12.289063v88.507812c0 8.835938-7.164062 16-16 16h-304c-8.835938 0-16-7.164062-16-16v-384h272c8.835938 0 16 7.164062 16 16zm0 0" fill="#cc995e"/><path d="m64 312h32c4.417969 0 8 3.582031 8 8v32c0 4.417969-3.582031 8-8 8h-32c-4.417969 0-8-3.582031-8-8v-32c0-4.417969 3.582031-8 8-8zm0 0" fill="#73c97c"/><path d="m120 312h16v16h-16zm0 0" fill="#997346"/><path d="m216 312h16v16h-16zm0 0" fill="#997346"/><path d="m152 312h48v16h-48zm0 0" fill="#997346"/><path d="m120 344h16v16h-16zm0 0" fill="#997346"/><path d="m216 344h16v16h-16zm0 0" fill="#997346"/><path d="m152 344h48v16h-48zm0 0" fill="#997346"/><path d="m224 424h-32c-4.417969 0-8-3.582031-8-8v-32c0-4.417969 3.582031-8 8-8h32c4.417969 0 8 3.582031 8 8v32c0 4.417969-3.582031 8-8 8zm0 0" fill="#ff675b"/><g fill="#997346"><path d="m152 376h16v16h-16zm0 0"/><path d="m56 376h16v16h-16zm0 0"/><path d="m88 376h48v16h-48zm0 0"/><path d="m152 408h16v16h-16zm0 0"/><path d="m56 408h16v16h-16zm0 0"/><path d="m88 408h48v16h-48zm0 0"/><path d="m0 64v-32c0-8.835938 7.164062-16 16-16h16v48zm0 0"/></g><path d="m184 168v-8c-.011719-8.832031-7.167969-15.988281-16-16h-16v-16h-16v16h-16c-8.832031.011719-15.988281 7.167969-16 16v24c.011719 8.832031 7.167969 15.988281 16 16h16v24h-16v-8h-16v8c.011719 8.832031 7.167969 15.988281 16 16h16v16h16v-16h16c8.832031-.011719 15.988281-7.167969 16-16v-24c-.011719-8.832031-7.167969-15.988281-16-16h-16v-24h16v8zm-16 32v24h-16v-24zm-32-16h-16v-24h16zm0 0" fill="#ffd04a"/><path d="m72 144h-16v-16c.015625-13.25 10.75-23.984375 24-24h16v16h-16c-4.417969.003906-7.996094 3.582031-8 8zm0 0" fill="#997346"/><path d="m96 280h-16c-13.25-.015625-23.984375-10.75-24-24v-16h16v16c.003906 4.417969 3.582031 7.996094 8 8h16zm0 0" fill="#997346"/><path d="m208 280h-16v-16h16c4.417969-.003906 7.996094-3.582031 8-8v-16h16v16c-.015625 13.25-10.75 23.984375-24 24zm0 0" fill="#997346"/><path d="m232 144h-16v-16c-.003906-4.417969-3.582031-7.996094-8-8h-16v-16h16c13.25.015625 23.984375 10.75 24 24zm0 0" fill="#997346"/></svg>