<svg height="464pt" viewBox="-80 0 464 464" width="464pt" xmlns="http://www.w3.org/2000/svg"><path d="m304 384v-368c0-8.835938-7.164062-16-16-16h-272c-8.835938 0-16 7.164062-16 16v368zm0 0" fill="#75c1ff"/><path d="m304 384v64c0 8.835938-7.164062 16-16 16h-272c-8.835938 0-16-7.164062-16-16v-64zm0 0" fill="#efefef"/><g fill="#bcbcbc"><path d="m168 424c0 8.835938-7.164062 16-16 16s-16-7.164062-16-16 7.164062-16 16-16 16 7.164062 16 16zm0 0"/><path d="m56 416h32v16h-32zm0 0"/><path d="m216 416h32v16h-32zm0 0"/></g><path d="m240 320v-240c0-8.835938-7.164062-16-16-16h-120c-8.835938 0-16 7.164062-16 16v240zm0 0" fill="#efefef"/><path d="m64 96h128c8.835938 0 16 7.164062 16 16v208h-144c-8.835938 0-16-7.164062-16-16v-192c0-8.835938 7.164062-16 16-16zm0 0" fill="#cc995e"/><path d="m208 208 48 56v40c0 8.835938-7.164062 16-16 16h-32zm0 0" fill="#b38652"/><path d="m168 184v-8c-.011719-8.832031-7.167969-15.988281-16-16h-16v-16h-16v16h-16c-8.832031.011719-15.988281 7.167969-16 16v24c.011719 8.832031 7.167969 15.988281 16 16h16v24h-16v-8h-16v8c.011719 8.832031 7.167969 15.988281 16 16h16v16h16v-16h16c8.832031-.011719 15.988281-7.167969 16-16v-24c-.011719-8.832031-7.167969-15.988281-16-16h-16v-24h16v8zm-16 32v24h-16v-24zm-32-16h-16v-24h16zm0 0" fill="#ffd04a"/></svg>