<?xml version="1.0" encoding="iso-8859-1"?>
<!-- Generator: Adobe Illustrator 19.0.0, SVG Export Plug-In . SVG Version: 6.00 Build 0)  -->
<svg version="1.1" id="Capa_1" xmlns="http://www.w3.org/2000/svg" xmlns:xlink="http://www.w3.org/1999/xlink" x="0px" y="0px"
	 viewBox="0 0 384.004 384.004" style="enable-background:new 0 0 384.004 384.004;" xml:space="preserve">
<g>
	<path style="fill:#FFFFFF;" d="M8.002,128.002V17.042c-0.18-4.813,3.575-8.86,8.388-9.04c0.217-0.008,0.435-0.008,0.652,0h110.96
		v120H8.002z"/>
	<path style="fill:#FFFFFF;" d="M256.002,376.002v-120h120v110.96c0.18,4.813-3.575,8.86-8.388,9.04
		c-0.217,0.008-0.435,0.008-0.652,0H256.002z"/>
</g>
<g>
	<path style="fill:#CC9640;" d="M128.002,8.242h127.92v119.76h-127.92L128.002,8.242z"/>
	<path style="fill:#CC9640;" d="M128.002,256.002h127.92v119.76h-127.92L128.002,256.002z"/>
	<path style="fill:#CC9640;" d="M8.242,128.002h119.76v128H8.242V128.002z"/>
</g>
<g>
	<path style="fill:#FFFFFF;" d="M17.042,376.002c-4.813,0.18-8.86-3.575-9.04-8.388c-0.008-0.217-0.008-0.435,0-0.652v-110.96h120
		v120H17.042z"/>
	<path style="fill:#FFFFFF;" d="M256.002,128.002v-120h110.96c4.813-0.18,8.86,3.575,9.04,8.388c0.008,0.217,0.008,0.435,0,0.652
		v110.96H256.002z"/>
	<path style="fill:#FFFFFF;" d="M128.002,128.002h127.92v128h-127.92L128.002,128.002z"/>
</g>
<path style="fill:#CC9640;" d="M256.002,128.002h119.76v128h-119.76V128.002z"/>
<g>
	<path style="fill:#35231A;" d="M366.962,0.002H17.042C7.764-0.132,0.135,7.281,0.002,16.558c-0.002,0.161-0.002,0.322,0,0.483
		v349.92c-0.134,9.277,7.279,16.906,16.557,17.04c0.161,0.002,0.322,0.002,0.483,0h349.92c9.277,0.134,16.906-7.279,17.04-16.557
		c0.002-0.161,0.002-0.322,0-0.483V17.042c0.134-9.277-7.279-16.906-16.557-17.04C367.284-0.001,367.123-0.001,366.962,0.002z
		 M120.002,368.002H17.042c-0.398,0-0.72-0.322-0.72-0.72l0,0v-103.28h103.68V368.002z M120.002,248.002h-104v-112h104V248.002z
		 M120.002,120.002h-104V17.042c0-0.398,0.322-0.72,0.72-0.72l0,0h103.28V120.002z M248.002,368.002h-112v-104h112V368.002z
		 M248.002,248.002h-112v-112h112V248.002z M248.002,120.002h-112v-104h112V120.002z M368.002,366.962c0,0.398-0.322,0.72-0.72,0.72
		l0,0h-103.28v-103.68h104V366.962z M368.002,248.002h-104v-112h104V248.002z M368.002,120.002h-104v-104h102.96
		c0.398,0,0.72,0.322,0.72,0.72l0,0L368.002,120.002z"/>
	<path style="fill:#35231A;" d="M177.602,102.082c2.874,3.356,7.924,3.747,11.28,0.873c3.356-2.874,3.747-7.924,0.873-11.28
		c-0.268-0.313-0.56-0.605-0.873-0.873l-24-24c-2.874-3.356-7.924-3.747-11.28-0.873c-3.356,2.874-3.747,7.924-0.873,11.28
		c0.268,0.313,0.56,0.605,0.873,0.873L177.602,102.082z"/>
	<path style="fill:#35231A;" d="M213.922,65.682c3.356,2.874,8.406,2.483,11.28-0.873c2.565-2.995,2.565-7.412,0-10.407l-24-24
		c-2.874-3.356-7.924-3.747-11.28-0.873c-3.356,2.874-3.747,7.924-0.873,11.28c0.268,0.313,0.56,0.605,0.873,0.873L213.922,65.682z"
		/>
	<path style="fill:#35231A;" d="M209.682,97.762c3.356,2.874,8.406,2.483,11.28-0.873c2.565-2.995,2.565-7.412,0-10.407
		l-51.84-51.84c-2.874-3.356-7.924-3.747-11.28-0.873s-3.747,7.924-0.873,11.28c0.268,0.313,0.56,0.605,0.873,0.873L209.682,97.762z
		"/>
	<path style="fill:#35231A;" d="M307.122,227.842c2.874,3.356,7.924,3.747,11.28,0.873s3.747-7.924,0.873-11.28
		c-0.268-0.313-0.56-0.605-0.873-0.873l-24-24c-3.356-2.874-8.406-2.483-11.28,0.873c-2.565,2.995-2.565,7.412,0,10.407
		L307.122,227.842z"/>
	<path style="fill:#35231A;" d="M343.442,191.442c2.874,3.356,7.924,3.747,11.28,0.873c3.356-2.874,3.747-7.924,0.873-11.28
		c-0.268-0.313-0.56-0.605-0.873-0.873l-24-24c-3.356-2.874-8.406-2.483-11.28,0.873c-2.565,2.995-2.565,7.412,0,10.407
		L343.442,191.442z"/>
	<path style="fill:#35231A;" d="M339.202,223.602c2.874,3.356,7.924,3.747,11.28,0.873s3.747-7.924,0.873-11.28
		c-0.268-0.313-0.56-0.605-0.873-0.873l-51.84-51.84c-2.874-3.356-7.924-3.747-11.28-0.873c-3.356,2.874-3.747,7.924-0.873,11.28
		c0.268,0.313,0.56,0.605,0.873,0.873L339.202,223.602z"/>
	<path style="fill:#35231A;" d="M56.882,227.842c3.356,2.874,8.406,2.483,11.28-0.873c2.565-2.995,2.565-7.412,0-10.407l-24-24
		c-2.874-3.356-7.924-3.747-11.28-0.873s-3.747,7.924-0.873,11.28c0.268,0.313,0.56,0.605,0.873,0.873L56.882,227.842z"/>
	<path style="fill:#35231A;" d="M93.202,191.442c3.356,2.874,8.406,2.483,11.28-0.873c2.565-2.995,2.565-7.412,0-10.407l-24-24
		c-3.356-2.874-8.406-2.483-11.28,0.873c-2.565,2.995-2.565,7.412,0,10.407L93.202,191.442z"/>
	<path style="fill:#35231A;" d="M88.962,223.602c2.874,3.356,7.924,3.747,11.28,0.873s3.747-7.924,0.873-11.28
		c-0.268-0.313-0.56-0.605-0.873-0.873l-51.84-51.84c-2.874-3.356-7.924-3.747-11.28-0.873c-3.356,2.874-3.747,7.924-0.873,11.28
		c0.268,0.313,0.56,0.605,0.873,0.873L88.962,223.602z"/>
	<path style="fill:#35231A;" d="M182.722,355.922c3.356,2.874,8.406,2.483,11.28-0.873c2.565-2.995,2.565-7.412,0-10.407l-24-24
		c-3.356-2.874-8.406-2.483-11.28,0.873c-2.565,2.995-2.565,7.412,0,10.407L182.722,355.922z"/>
	<path style="fill:#35231A;" d="M219.042,319.602c2.874,3.356,7.924,3.747,11.28,0.873s3.747-7.924,0.873-11.28
		c-0.268-0.313-0.56-0.605-0.873-0.873l-24-24c-3.225-3.093-8.347-2.985-11.44,0.24s-2.985,8.347,0.24,11.44L219.042,319.602z"/>
	<path style="fill:#35231A;" d="M214.802,352.002c3.356,2.874,8.406,2.483,11.28-0.873c2.565-2.995,2.565-7.412,0-10.407
		l-51.84-51.84c-3.356-2.874-8.406-2.483-11.28,0.873c-2.565,2.995-2.565,7.412,0,10.407L214.802,352.002z"/>
</g>
<g>
</g>
<g>
</g>
<g>
</g>
<g>
</g>
<g>
</g>
<g>
</g>
<g>
</g>
<g>
</g>
<g>
</g>
<g>
</g>
<g>
</g>
<g>
</g>
<g>
</g>
<g>
</g>
<g>
</g>
</svg>
