<svg height="464pt" viewBox="-64 0 464 464" width="464pt" xmlns="http://www.w3.org/2000/svg"><path d="m16 0h160c8.835938 0 16 7.164062 16 16v256h-192v-256c0-8.835938 7.164062-16 16-16zm0 0" fill="#75c1ff"/><path d="m80 40h32v16h-32zm0 0" fill="#5e9acc"/><path d="m0 272h192v64c0 8.835938-7.164062 16-16 16h-160c-8.835938 0-16-7.164062-16-16zm0 0" fill="#d6d6d6"/><path d="m112 312c0 8.835938-7.164062 16-16 16s-16-7.164062-16-16 7.164062-16 16-16 16 7.164062 16 16zm0 0" fill="#a3a3a3"/><path d="m32 304h24v16h-24zm0 0" fill="#a3a3a3"/><path d="m136 304h24v16h-24zm0 0" fill="#a3a3a3"/><path d="m160 240v208c0 8.835938 7.164062 16 16 16h144c8.835938 0 16-7.164062 16-16v-169.371094c0-4.246094-1.6875-8.316406-4.6875-11.316406l-38.625-38.625c-3-3-7.070312-4.6875-11.316406-4.6875h-105.371094c-8.835938 0-16 7.164062-16 16zm0 0" fill="#efefef"/><path d="m331.3125 267.3125-38.625-38.625c-1.359375-1.339844-2.945312-2.421875-4.6875-3.199219v38.511719c0 4.417969 3.582031 8 8 8h38.511719c-.777344-1.742188-1.859375-3.328125-3.199219-4.6875zm0 0" fill="#a3a3a3"/><path d="m184 256h16v16h-16zm0 0" fill="#bcbcbc"/><path d="m216 256h48v16h-48zm0 0" fill="#bcbcbc"/><path d="m184 288h16v16h-16zm0 0" fill="#bcbcbc"/><path d="m216 288h48v16h-48zm0 0" fill="#bcbcbc"/><path d="m200 320h16c8.835938 0 16 7.164062 16 16v16c0 8.835938-7.164062 16-16 16h-16c-8.835938 0-16-7.164062-16-16v-16c0-8.835938 7.164062-16 16-16zm0 0" fill="#ffd04a"/><g fill="#bcbcbc"><path d="m280 320h32v16h-32zm0 0"/><path d="m248 320h16v16h-16zm0 0"/><path d="m280 352h32v16h-32zm0 0"/><path d="m248 352h16v16h-16zm0 0"/><path d="m184 384h16v16h-16zm0 0"/><path d="m296 384h16v16h-16zm0 0"/><path d="m216 384h64v16h-64zm0 0"/><path d="m184 416h16v16h-16zm0 0"/><path d="m296 416h16v16h-16zm0 0"/><path d="m216 416h64v16h-64zm0 0"/></g><path d="m136 136v-8c-.011719-8.832031-7.167969-15.988281-16-16h-16v-16h-16v16h-16c-8.832031.011719-15.988281 7.167969-16 16v24c.011719 8.832031 7.167969 15.988281 16 16h16v24h-16v-8h-16v8c.011719 8.832031 7.167969 15.988281 16 16h16v16h16v-16h16c8.832031-.011719 15.988281-7.167969 16-16v-24c-.011719-8.832031-7.167969-15.988281-16-16h-16v-24h16v8zm-16 32v24h-16v-24zm-32-16h-16v-24h16zm0 0" fill="#ffd04a"/></svg>