<svg id="Layer_1" enable-background="new 0 0 256 256" height="512" viewBox="0 0 256 256" width="512" xmlns="http://www.w3.org/2000/svg"><path d="m98.012 143h-24.689c-2.209 0-4-1.791-4-4v-18.333h32.689v18.333c0 2.209-1.791 4-4 4z" fill="#f9b087"/><path d="m144.026 149.674v1.181c0 11.503-9.325 20.828-20.827 20.828h-53.845c-11.503 0-20.827-9.325-20.827-20.828v-1.181z" fill="#ebe7f2"/><circle cx="154.66" cy="101.408" fill="#f9b087" r="5.627"/><path d="m244.854 54.66c-.69-1.197-2.221-1.605-3.415-.915l-28.352 16.369-28.352-16.369c-1.193-.69-2.725-.281-3.415.915s-.28 2.725.915 3.415l28.352 16.369v32.738c0 1.381 1.119 2.5 2.5 2.5s2.5-1.119 2.5-2.5v-32.739l28.352-16.369c1.196-.69 1.606-2.219.915-3.414z" fill="#ebe7f2"/><path d="m185.473 101.799-27.156-16.092v-13.456c0-1.736-1.047-3.26-2.668-3.883s-3.42-.191-4.582 1.099l-5.01 5.561c-2.04-1.314-4.421-1.99-6.908-1.925-3.385.088-6.496 1.522-8.762 4.037l-27.102 30.082c-.891.988-.851 2.5.09 3.441l5.564 5.564-1.732 1.922h-37.853c-5.8 0-11.107 2.132-15.193 5.648-10.148-.76-13.861-4.583-13.571-13.853.064-2.065-.679-4.032-2.093-5.538-1.415-1.506-3.331-2.371-5.385-2.435-2.077-.083-4.022.663-5.532 2.075-1.517 1.418-2.388 3.341-2.452 5.413-.479 15.266 7.021 25.388 21.135 28.721-.153 1.077-.237 2.176-.237 3.295v9.379c0 6.932 3.073 13.434 8.316 17.845l-13.218 13.219c-2.283 2.283-2.934 5.554-1.698 8.537 1.235 2.983 4.009 4.836 7.237 4.836 1.82 0 3.596-.64 4.998-1.802l23.994-19.883c1.063-.881 1.211-2.457.33-3.52s-2.458-1.21-3.52-.33l-23.993 19.884c-.508.421-1.15.652-1.809.652-1.757 0-2.448-1.339-2.618-1.75s-.628-1.846.614-3.088l15.067-15.068c.857-.856.961-2.179.315-3.15-.177-.465-.49-.883-.933-1.183-5.061-3.418-8.082-9.101-8.082-15.199v-9.379c0-10.105 8.222-18.327 18.327-18.327h38.966c.708 0 1.383-.3 1.857-.827l30.939-34.341 7.083-7.862c0-.001.001-.001.001-.002l5.116-5.678v12.691c0 .883.466 1.701 1.226 2.151l28.382 16.819c3.315 1.965 4.454 6.148 2.592 9.524-1.603 2.908-4.953 4.304-8.148 3.393l-15.14-4.311c-.872-.249-1.811-.005-2.452.637l-17.517 17.517c-.469.469-.732 1.104-.732 1.768v16.227c0 6.338-3.322 12.253-8.695 15.584-.09.049-.177.102-.262.163-.072.043-.139.09-.212.132-1.195.691-1.604 2.22-.913 3.416.394.681 1.062 1.087 1.783 1.2l14.105 14.105c1.242 1.243.784 2.678.613 3.089-.17.41-.86 1.749-2.617 1.749-.659 0-1.301-.231-1.809-.652l-23.995-19.883c-.448-.372-1.013-.575-1.595-.575h-33.194c-1.381 0-2.5 1.119-2.5 2.5s1.119 2.5 2.5 2.5h32.294l23.301 19.307c1.401 1.163 3.177 1.803 4.999 1.803 3.229 0 6.001-1.853 7.237-4.835 1.235-2.983.585-6.254-1.698-8.538l-12.969-12.969c5.389-4.392 8.627-11.037 8.627-18.095v-15.191l15.745-15.746 13.727 3.909c5.449 1.554 11.162-.829 13.896-5.787 3.175-5.756 1.234-12.89-4.421-16.241zm-155.347 7.817c.022-.733.331-1.415.869-1.917.53-.497 1.25-.761 1.949-.729.73.022 1.408.328 1.908.86s.763 1.227.739 1.958c-.336 10.736 4.301 16.718 14.505 18.542-1.059 1.546-1.937 3.226-2.602 5.008-11.761-2.757-17.77-10.918-17.368-23.722zm82.163 2.89-3.701-3.702 25.514-28.318c1.339-1.486 3.178-2.333 5.177-2.385 1.179-.039 2.327.22 3.357.724l-3.351 3.72z" fill="#846f75"/><path d="m243.939 53.745-29.602-17.091c-.773-.446-1.727-.446-2.5 0l-29.602 17.091c-.773.447-1.25 1.272-1.25 2.165v34.18c0 .893.477 1.718 1.25 2.165l29.602 17.091c.387.223.818.335 1.25.335s.863-.112 1.25-.335l29.602-17.091c.773-.447 1.25-1.272 1.25-2.165v-34.18c0-.893-.476-1.719-1.25-2.165zm-3.75 34.902-27.102 15.647-27.102-15.647v-31.294l27.102-15.647 27.102 15.647z" fill="#846f75"/><g fill="#f9b087"><path d="m193.211 84.73c-.549 0-1.102-.18-1.563-.551-1.076-.865-1.248-2.438-.384-3.515l14.484-18.036c.664-.827 1.778-1.144 2.779-.793 1 .352 1.67 1.297 1.67 2.358v18.037c0 1.381-1.119 2.5-2.5 2.5s-2.5-1.119-2.5-2.5v-10.931l-10.035 12.496c-.494.615-1.219.935-1.951.935z"/><path d="m232.964 84.76c-.722 0-1.438-.311-1.932-.912l-8.002-9.732c-.748-.91-.76-2.218-.028-3.141l3.392-4.281h-7.629v15.536c0 1.381-1.119 2.5-2.5 2.5s-2.5-1.119-2.5-2.5v-18.036c0-1.381 1.119-2.5 2.5-2.5h15.3c.959 0 1.833.548 2.251 1.412.417.863.304 1.889-.292 2.641l-5.35 6.752 6.72 8.173c.877 1.067.724 2.642-.343 3.519-.466.383-1.028.569-1.587.569z"/></g></svg>