<svg height="464pt" viewBox="-72 0 464 464" width="464pt" xmlns="http://www.w3.org/2000/svg"><path d="m16 32h288c8.835938 0 16 7.164062 16 16v400c0 8.835938-7.164062 16-16 16h-288c-8.835938 0-16-7.164062-16-16v-400c0-8.835938 7.164062-16 16-16zm0 0" fill="#cc995e"/><path d="m48 64h224c8.835938 0 16 7.164062 16 16v336c0 8.835938-7.164062 16-16 16h-224c-8.835938 0-16-7.164062-16-16v-336c0-8.835938 7.164062-16 16-16zm0 0" fill="#efefef"/><path d="m216 320h16c8.835938 0 16 7.164062 16 16v16c0 8.835938-7.164062 16-16 16h-16c-8.835938 0-16-7.164062-16-16v-16c0-8.835938 7.164062-16 16-16zm0 0" fill="#73c97c"/><g fill="#bcbcbc"><path d="m168 352h16v16h-16zm0 0"/><path d="m72 352h16v16h-16zm0 0"/><path d="m104 352h48v16h-48zm0 0"/><path d="m232 384h16v16h-16zm0 0"/><path d="m72 384h16v16h-16zm0 0"/><path d="m104 384h112v16h-112zm0 0"/><path d="m168 320h16v16h-16zm0 0"/><path d="m72 320h16v16h-16zm0 0"/><path d="m104 320h48v16h-48zm0 0"/></g><path d="m104 0h112c8.835938 0 16 7.164062 16 16v56c0 8.835938-7.164062 16-16 16h-112c-8.835938 0-16-7.164062-16-16v-56c0-8.835938 7.164062-16 16-16zm0 0" fill="#ffd04a"/><path d="m200 184v-8c-.011719-8.832031-7.167969-15.988281-16-16h-16v-16h-16v16h-16c-8.832031.011719-15.988281 7.167969-16 16v24c.011719 8.832031 7.167969 15.988281 16 16h16v24h-16v-8h-16v8c.011719 8.832031 7.167969 15.988281 16 16h16v16h16v-16h16c8.832031-.011719 15.988281-7.167969 16-16v-24c-.011719-8.832031-7.167969-15.988281-16-16h-16v-24h16v8zm-16 32v24h-16v-24zm-32-16h-16v-24h16zm0 0" fill="#ff665b"/><path d="m88 160h-16v-16c.015625-13.25 10.75-23.984375 24-24h16v16h-16c-4.417969.003906-7.996094 3.582031-8 8zm0 0" fill="#ffd04a"/><path d="m112 296h-16c-13.25-.015625-23.984375-10.75-24-24v-16h16v16c.003906 4.417969 3.582031 7.996094 8 8h16zm0 0" fill="#ffd04a"/><path d="m224 296h-16v-16h16c4.417969-.003906 7.996094-3.582031 8-8v-16h16v16c-.015625 13.25-10.75 23.984375-24 24zm0 0" fill="#ffd04a"/><path d="m248 160h-16v-16c-.003906-4.417969-3.582031-7.996094-8-8h-16v-16h16c13.25.015625 23.984375 10.75 24 24zm0 0" fill="#ffd04a"/></svg>