<svg height="464pt" viewBox="0 -16 464 464" width="464pt" xmlns="http://www.w3.org/2000/svg"><path d="m16 192h432c8.835938 0 16 7.164062 16 16v208c0 8.835938-7.164062 16-16 16h-432c-8.835938 0-16-7.164062-16-16v-208c0-8.835938 7.164062-16 16-16zm0 0" fill="#cc995e"/><g fill="#b38652"><path d="m344 304h120v16h-120zm0 0"/><path d="m0 304h120v16h-120zm0 0"/><path d="m320 312c0 48.601562-39.398438 88-88 88s-88-39.398438-88-88 39.398438-88 88-88 88 39.398438 88 88zm0 0"/></g><path d="m272 56c0 22.089844-17.910156 40-40 40s-40-17.910156-40-40 17.910156-40 40-40 40 17.910156 40 40zm0 0" fill="#ffd7a8"/><path d="m288.042969 143.976562v48h-112v-48s0-48 56-48 56 48 56 48zm0 0" fill="#55965c"/><path d="m40 160c-8.835938 0-16 7.164062-16 16s7.164062 16 16 16h96v-32zm0 0" fill="#b34840"/><path d="m40 128c-8.835938 0-16 7.164062-16 16s7.164062 16 16 16h96v-32zm0 0" fill="#cc5249"/><path d="m40 96c-8.835938 0-16 7.164062-16 16s7.164062 16 16 16h96v-32zm0 0" fill="#ff675b"/><path d="m336 0h112c8.835938 0 16 7.164062 16 16v80c0 8.835938-7.164062 16-16 16h-112c-8.835938 0-16-7.164062-16-16v-80c0-8.835938 7.164062-16 16-16zm0 0" fill="#efefef"/><path d="m336 144h112c8.835938 0 16 7.164062 16 16v16c0 8.835938-7.164062 16-16 16h-112c-8.835938 0-16-7.164062-16-16v-16c0-8.835938 7.164062-16 16-16zm0 0" fill="#efefef"/><path d="m376 48h32c8.835938 0 16 7.164062 16 16v32c0 8.835938-7.164062 16-16 16h-32c-8.835938 0-16-7.164062-16-16v-32c0-8.835938 7.164062-16 16-16zm0 0" fill="#d6d6d6"/><path d="m384 80h16v64h-16zm0 0" fill="#bcbcbc"/><path d="m272 288v-8c-.011719-8.832031-7.167969-15.988281-16-16h-16v-16h-16v16h-16c-8.832031.011719-15.988281 7.167969-16 16v24c.011719 8.832031 7.167969 15.988281 16 16h16v24h-16v-8h-16v8c.011719 8.832031 7.167969 15.988281 16 16h16v16h16v-16h16c8.832031-.011719 15.988281-7.167969 16-16v-24c-.011719-8.832031-7.167969-15.988281-16-16h-16v-24h16v8zm-16 32v24h-16v-24zm-32-16h-16v-24h16zm0 0" fill="#ffd04a"/></svg>