<svg height="464pt" viewBox="0 -4 464 464" width="464pt" xmlns="http://www.w3.org/2000/svg"><path d="m0 216h464v224c0 8.835938-7.164062 16-16 16h-432c-8.835938 0-16-7.164062-16-16zm0 0" fill="#cc995e"/><g fill="#b38652"><path d="m0 328h120v16h-120zm0 0"/><path d="m344 328h120v16h-120zm0 0"/><path d="m320 336c0 48.601562-39.398438 88-88 88s-88-39.398438-88-88 39.398438-88 88-88 88 39.398438 88 88zm0 0"/><path d="m16 176h432c8.835938 0 16 7.164062 16 16v24h-464v-24c0-8.835938 7.164062-16 16-16zm0 0"/></g><path d="m96 0h160c8.835938 0 16 7.164062 16 16v88c0 8.835938-7.164062 16-16 16h-160c-8.835938 0-16-7.164062-16-16v-88c0-8.835938 7.164062-16 16-16zm0 0" fill="#efefef"/><path d="m152 32h48c8.835938 0 16 7.164062 16 16v24c0 8.835938-7.164062 16-16 16h-48c-8.835938 0-16-7.164062-16-16v-24c0-8.835938 7.164062-16 16-16zm0 0" fill="#d6d6d6"/><path d="m168 56h16v120h-16zm0 0" fill="#bcbcbc"/><path d="m376 40c0 17.671875-14.328125 32-32 32s-32-14.328125-32-32 14.328125-32 32-32 32 14.328125 32 32zm0 0" fill="#ffd7a8"/><path d="m384 104v72h-80v-72s0-32 40-32 40 32 40 32zm0 0" fill="#55965c"/><path d="m272 312v-8c-.007812-8.832031-7.167969-15.992188-16-16h-16v-16h-16v16h-16c-8.832031.007812-15.992188 7.167969-16 16v24c.007812 8.832031 7.167969 15.992188 16 16h16v24h-16v-8h-16v8c.007812 8.832031 7.167969 15.992188 16 16h16v16h16v-16h16c8.832031-.007812 15.992188-7.167969 16-16v-24c-.007812-8.832031-7.167969-15.992188-16-16h-16v-24h16v8zm-16 32v24h-16v-24zm-32-16h-16v-24h16zm0 0" fill="#ffd04a"/></svg>