<svg height="464pt" viewBox="0 0 464 464" width="464pt" xmlns="http://www.w3.org/2000/svg"><path d="m224 320h224c8.835938 0 16 7.164062 16 16v112c0 8.835938-7.164062 16-16 16h-224c-8.835938 0-16-7.164062-16-16v-112c0-8.835938 7.164062-16 16-16zm0 0" fill="#efefef"/><g fill="#73c97c"><path d="m256 464c0-26.507812-21.492188-48-48-48v32c0 8.835938 7.164062 16 16 16zm0 0"/><path d="m208 368c26.507812 0 48-21.492188 48-48h-32c-8.835938 0-16 7.164062-16 16zm0 0"/><path d="m416 464h32c8.835938 0 16-7.164062 16-16v-32c-26.507812 0-48 21.492188-48 48zm0 0"/><path d="m416 320c0 26.507812 21.492188 48 48 48v-32c0-8.835938-7.164062-16-16-16zm0 0"/><path d="m376 392c0 22.089844-17.910156 40-40 40s-40-17.910156-40-40 17.910156-40 40-40 40 17.910156 40 40zm0 0"/></g><path d="m122.34375 365.65625-26.34375-26.34375-26.34375 26.34375-11.3125-11.3125 37.65625-37.65625 37.65625 37.65625zm0 0" fill="#bcbcbc"/><path d="m168 384h16v16h-16zm0 0" fill="#bcbcbc"/><path d="m152 400h-40c-13.25-.015625-23.984375-10.75-24-24v-40h16v40c.003906 4.417969 3.582031 7.996094 8 8h40zm0 0" fill="#bcbcbc"/><path d="m0 152h352v112c0 8.835938-7.164062 16-16 16h-320c-8.835938 0-16-7.164062-16-16zm0 0" fill="#b38652"/><path d="m16 64h320c8.835938 0 16 7.164062 16 16v72h-352v-72c0-8.835938 7.164062-16 16-16zm0 0" fill="#cc995e"/><path d="m128 104h-32c-8.835938 0-16 7.164062-16 16v88l32 32 32-32v-88c0-8.835938-7.164062-16-16-16zm0 0" fill="#e6ac6a"/><path d="m56 184h112v16h-112zm0 0" fill="#997246"/><path d="m104 128h16v16h-16zm0 0" fill="#80603a"/><path d="m104 152h16v16h-16zm0 0" fill="#80603a"/><path d="m256 104h-32c-8.835938 0-16 7.164062-16 16v88l32 32 32-32v-88c0-8.835938-7.164062-16-16-16zm0 0" fill="#e6ac6a"/><path d="m184 184h112v16h-112zm0 0" fill="#997246"/><path d="m232 128h16v16h-16zm0 0" fill="#80603a"/><path d="m232 152h16v16h-16zm0 0" fill="#80603a"/><path d="m80 64h-16v-32c.015625-13.25 10.75-23.984375 24-24h32v16h-32c-4.417969.003906-7.996094 3.582031-8 8zm0 0" fill="#80603a"/><path d="m288 64h-16v-32c-.003906-4.417969-3.582031-7.996094-8-8h-32v-16h32c13.25.015625 23.984375 10.75 24 24zm0 0" fill="#80603a"/><path d="m120 0h112c8.835938 0 16 7.164062 16 16s-7.164062 16-16 16h-112c-8.835938 0-16-7.164062-16-16s7.164062-16 16-16zm0 0" fill="#cc995e"/></svg>