<svg height="464pt" viewBox="0 -72 464 464" width="464pt" xmlns="http://www.w3.org/2000/svg"><path d="m16 0h144c8.835938 0 16 7.164062 16 16v224h-176v-224c0-8.835938 7.164062-16 16-16zm0 0" fill="#75c1ff"/><path d="m72 24h32v16h-32zm0 0" fill="#5e9acc"/><path d="m0 240h176v64c0 8.835938-7.164062 16-16 16h-144c-8.835938 0-16-7.164062-16-16zm0 0" fill="#efefef"/><path d="m24 272h24v16h-24zm0 0" fill="#bcbcbc"/><path d="m128 272h24v16h-24zm0 0" fill="#bcbcbc"/><path d="m104 280c0 8.835938-7.164062 16-16 16s-16-7.164062-16-16 7.164062-16 16-16 16 7.164062 16 16zm0 0" fill="#bcbcbc"/><path d="m224 152h224c8.835938 0 16 7.164062 16 16v128c0 8.835938-7.164062 16-16 16h-224c-8.835938 0-16-7.164062-16-16v-128c0-8.835938 7.164062-16 16-16zm0 0" fill="#efefef"/><path d="m256 184h32c8.835938 0 16 7.164062 16 16v32c0 8.835938-7.164062 16-16 16h-32c-8.835938 0-16-7.164062-16-16v-32c0-8.835938 7.164062-16 16-16zm0 0" fill="#ffd04a"/><g fill="#bcbcbc"><path d="m424 176h16v16h-16zm0 0"/><path d="m360 176h48v16h-48zm0 0"/><path d="m328 176h16v16h-16zm0 0"/><path d="m424 208h16v16h-16zm0 0"/><path d="m360 208h48v16h-48zm0 0"/><path d="m328 208h16v16h-16zm0 0"/><path d="m424 240h16v16h-16zm0 0"/><path d="m360 240h48v16h-48zm0 0"/><path d="m328 240h16v16h-16zm0 0"/><path d="m232 272h16v16h-16zm0 0"/><path d="m424 272h16v16h-16zm0 0"/><path d="m264 272h144v16h-144zm0 0"/></g><path d="m224 8h168c8.835938 0 16 7.164062 16 16v80c0 8.835938-7.164062 16-16 16h-168c-8.835938 0-16-7.164062-16-16v-80c0-8.835938 7.164062-16 16-16zm0 0" fill="#efefef"/><path d="m336 64c0 15.464844-12.535156 28-28 28s-28-12.535156-28-28 12.535156-28 28-28 28 12.535156 28 28zm0 0" fill="#73c97c"/><path d="m208 48c22.089844 0 40-17.910156 40-40h-24c-8.835938 0-16 7.164062-16 16zm0 0" fill="#73c97c"/><path d="m368 8c0 22.089844 17.910156 40 40 40v-24c0-8.835938-7.164062-16-16-16zm0 0" fill="#73c97c"/><path d="m208 80v24c0 8.835938 7.164062 16 16 16h24c0-22.089844-17.910156-40-40-40zm0 0" fill="#73c97c"/><path d="m408 80c-22.089844 0-40 17.910156-40 40h24c8.835938 0 16-7.164062 16-16zm0 0" fill="#73c97c"/></svg>