<svg height="464pt" viewBox="0 -16 464 464" width="464pt" xmlns="http://www.w3.org/2000/svg"><path d="m0 240h416v64c0 8.835938-7.164062 16-16 16h-384c-8.835938 0-16-7.164062-16-16zm0 0" fill="#efefef"/><path d="m160 320h88v72h-88zm0 0" fill="#bcbcbc"/><path d="m224 280c0 8.835938-7.164062 16-16 16s-16-7.164062-16-16 7.164062-16 16-16 16 7.164062 16 16zm0 0" fill="#bcbcbc"/><path d="m96 384h224v16h-224zm0 0" fill="#efefef"/><path d="m16 0h384c8.835938 0 16 7.164062 16 16v224h-416v-224c0-8.835938 7.164062-16 16-16zm0 0" fill="#75c1ff"/><path d="m296 120c0 48.601562-39.398438 88-88 88s-88-39.398438-88-88 39.398438-88 88-88 88 39.398438 88 88zm0 0" fill="#ffd04a"/><path d="m248 96v-8c-.011719-8.832031-7.167969-15.988281-16-16h-16v-16h-16v16h-16c-8.832031.011719-15.988281 7.167969-16 16v24c.011719 8.832031 7.167969 15.988281 16 16h16v24h-16v-8h-16v8c.011719 8.832031 7.167969 15.988281 16 16h16v16h16v-16h16c8.832031-.011719 15.988281-7.167969 16-16v-24c-.011719-8.832031-7.167969-15.988281-16-16h-16v-24h16v8zm-16 32v24h-16v-24zm-32-16h-16v-24h16zm0 0" fill="#997d2c"/><path d="m280 272h168c8.835938 0 16 7.164062 16 16v96c0 8.835938-7.164062 16-16 16h-168c-8.835938 0-16-7.164062-16-16v-96c0-8.835938 7.164062-16 16-16zm0 0" fill="#d6d6d6"/><path d="m264 312c22.089844 0 40-17.910156 40-40h-24c-8.835938 0-16 7.164062-16 16zm0 0" fill="#64af6c"/><path d="m424 272c0 22.089844 17.910156 40 40 40v-24c0-8.835938-7.164062-16-16-16zm0 0" fill="#64af6c"/><path d="m464 360c-22.089844 0-40 17.910156-40 40h24c8.835938 0 16-7.164062 16-16zm0 0" fill="#64af6c"/><path d="m248 304h168c8.835938 0 16 7.164062 16 16v96c0 8.835938-7.164062 16-16 16h-168c-8.835938 0-16-7.164062-16-16v-96c0-8.835938 7.164062-16 16-16zm0 0" fill="#efefef"/><g fill="#73c97c"><path d="m360 368c0 15.464844-12.535156 28-28 28s-28-12.535156-28-28 12.535156-28 28-28 28 12.535156 28 28zm0 0"/><path d="m232 344c22.089844 0 40-17.910156 40-40h-24c-8.835938 0-16 7.164062-16 16zm0 0"/><path d="m392 304c0 22.089844 17.910156 40 40 40v-24c0-8.835938-7.164062-16-16-16zm0 0"/><path d="m232 392v24c0 8.835938 7.164062 16 16 16h24c0-22.089844-17.910156-40-40-40zm0 0"/><path d="m432 392c-22.089844 0-40 17.910156-40 40h24c8.835938 0 16-7.164062 16-16zm0 0"/></g></svg>