<svg height="464pt" viewBox="-101 0 464 464" width="464pt" xmlns="http://www.w3.org/2000/svg"><path d="m19.3125 0h224c8.835938 0 16 7.164062 16 16v112c0 8.835938-7.164062 16-16 16h-224c-8.835938 0-16-7.164062-16-16v-112c0-8.835938 7.164062-16 16-16zm0 0" fill="#efefef"/><path d="m51.3125 144c0-26.507812-21.492188-48-48-48v32c0 8.835938 7.164062 16 16 16zm0 0" fill="#73c97c"/><path d="m3.3125 48c26.507812 0 48-21.492188 48-48h-32c-8.835938 0-16 7.164062-16 16zm0 0" fill="#73c97c"/><path d="m211.3125 144h32c8.835938 0 16-7.164062 16-16v-32c-26.511719 0-48 21.492188-48 48zm0 0" fill="#73c97c"/><path d="m211.3125 0c0 26.507812 21.488281 48 48 48v-32c0-8.835938-7.164062-16-16-16zm0 0" fill="#73c97c"/><path d="m171.3125 72c0 22.089844-17.910156 40-40 40-22.09375 0-40-17.910156-40-40s17.90625-40 40-40c22.089844 0 40 17.910156 40 40zm0 0" fill="#73c97c"/><path d="m19.3125 320h224c8.835938 0 16 7.164062 16 16v112c0 8.835938-7.164062 16-16 16h-224c-8.835938 0-16-7.164062-16-16v-112c0-8.835938 7.164062-16 16-16zm0 0" fill="#efefef"/><path d="m51.3125 464c0-26.507812-21.492188-48-48-48v32c0 8.835938 7.164062 16 16 16zm0 0" fill="#73c97c"/><path d="m3.3125 368c26.507812 0 48-21.492188 48-48h-32c-8.835938 0-16 7.164062-16 16zm0 0" fill="#73c97c"/><path d="m211.3125 464h32c8.835938 0 16-7.164062 16-16v-32c-26.511719 0-48 21.492188-48 48zm0 0" fill="#73c97c"/><path d="m211.3125 320c0 26.507812 21.488281 48 48 48v-32c0-8.835938-7.164062-16-16-16zm0 0" fill="#73c97c"/><path d="m171.3125 392c0 22.089844-17.910156 40-40 40-22.09375 0-40-17.910156-40-40s17.90625-40 40-40c22.089844 0 40 17.910156 40 40zm0 0" fill="#73c97c"/><g fill="#bcbcbc"><path d="m37.65625 253.65625-37.65625-37.65625 37.65625-37.65625 11.3125 11.3125-26.34375 26.34375 26.34375 26.34375zm0 0"/><path d="m179.3125 168h16v16h-16zm0 0"/><path d="m171.3125 224h-152v-16h152c4.414062-.003906 7.996094-3.582031 8-8h16c-.015625 13.25-10.75 23.984375-24 24zm0 0"/><path d="m224.96875 285.65625-11.3125-11.3125 26.34375-26.34375-26.34375-26.34375 11.3125-11.3125 37.65625 37.65625zm0 0"/><path d="m67.3125 280h16v16h-16zm0 0"/><path d="m83.3125 264h-16c.015625-13.25 10.75-23.984375 24-24h152v16h-152c-4.417969.003906-7.996094 3.582031-8 8zm0 0"/></g></svg>