<svg height="464pt" viewBox="0 -80 464 464" width="464pt" xmlns="http://www.w3.org/2000/svg"><path d="m112 96h336c8.835938 0 16 7.164062 16 16v176c0 8.835938-7.164062 16-16 16h-336c-8.835938 0-16-7.164062-16-16v-176c0-8.835938 7.164062-16 16-16zm0 0" fill="#a3a3a3"/><path d="m96 232v56c0 8.835938 7.164062 16 16 16h56c0-39.765625-32.234375-72-72-72zm0 0" fill="#477c4d"/><path d="m392 96c0 39.765625 32.234375 72 72 72v-56c0-8.835938-7.164062-16-16-16zm0 0" fill="#477c4d"/><path d="m464 232c-39.765625 0-72 32.234375-72 72h56c8.835938 0 16-7.164062 16-16zm0 0" fill="#477c4d"/><path d="m80 64h336c8.835938 0 16 7.164062 16 16v176c0 8.835938-7.164062 16-16 16h-336c-8.835938 0-16-7.164062-16-16v-176c0-8.835938 7.164062-16 16-16zm0 0" fill="#bcbcbc"/><path d="m64 200v56c0 8.835938 7.164062 16 16 16h56c0-39.765625-32.234375-72-72-72zm0 0" fill="#55965c"/><path d="m360 64c0 39.765625 32.234375 72 72 72v-56c0-8.835938-7.164062-16-16-16zm0 0" fill="#55965c"/><path d="m432 200c-39.765625 0-72 32.234375-72 72h56c8.835938 0 16-7.164062 16-16zm0 0" fill="#55965c"/><path d="m48 32h336c8.835938 0 16 7.164062 16 16v176c0 8.835938-7.164062 16-16 16h-336c-8.835938 0-16-7.164062-16-16v-176c0-8.835938 7.164062-16 16-16zm0 0" fill="#d6d6d6"/><path d="m32 168v56c0 8.835938 7.164062 16 16 16h56c0-39.765625-32.234375-72-72-72zm0 0" fill="#64af6c"/><path d="m328 32c0 39.765625 32.234375 72 72 72v-56c0-8.835938-7.164062-16-16-16zm0 0" fill="#64af6c"/><path d="m400 168c-39.765625 0-72 32.234375-72 72h56c8.835938 0 16-7.164062 16-16zm0 0" fill="#64af6c"/><path d="m16 0h336c8.835938 0 16 7.164062 16 16v176c0 8.835938-7.164062 16-16 16h-336c-8.835938 0-16-7.164062-16-16v-176c0-8.835938 7.164062-16 16-16zm0 0" fill="#efefef"/><g fill="#73c97c"><path d="m240 104c0 30.929688-25.070312 56-56 56s-56-25.070312-56-56 25.070312-56 56-56 56 25.070312 56 56zm0 0"/><path d="m0 72c39.765625 0 72-32.234375 72-72h-56c-8.835938 0-16 7.164062-16 16zm0 0"/><path d="m0 136v56c0 8.835938 7.164062 16 16 16h56c0-39.765625-32.234375-72-72-72zm0 0"/><path d="m296 0c0 39.765625 32.234375 72 72 72v-56c0-8.835938-7.164062-16-16-16zm0 0"/><path d="m368 136c-39.765625 0-72 32.234375-72 72h56c8.835938 0 16-7.164062 16-16zm0 0"/></g></svg>