<svg height="464pt" viewBox="-56 0 464 464" width="464pt" xmlns="http://www.w3.org/2000/svg"><path d="m16 400h320c8.835938 0 16 7.164062 16 16v48h-352v-48c0-8.835938 7.164062-16 16-16zm0 0" fill="#ffbf75"/><path d="m0 424h352v16h-352zm0 0" fill="#cc995e"/><path d="m176 200h168l-168-112-168 112zm0 0" fill="#ffbf75"/><g fill="#cc995e"><path d="m48 200h40v200h-40zm0 0"/><path d="m120 200h40v200h-40zm0 0"/><path d="m192 200h40v200h-40zm0 0"/><path d="m264 200h40v200h-40zm0 0"/></g><path d="m176 0c-48.601562 0-88 39.398438-88 88s88 184 88 184 88-135.398438 88-184-39.398438-88-88-88zm0 128c-22.089844 0-40-17.910156-40-40s17.910156-40 40-40 40 17.910156 40 40-17.910156 40-40 40zm0 0" fill="#ff675b"/></svg>