<svg height="472pt" viewBox="-3 0 471 472" width="472pt" xmlns="http://www.w3.org/2000/svg"><path d="m16.5 0h432c8.835938 0 16 7.164062 16 16v304h-464v-304c0-8.835938 7.164062-16 16-16zm0 0" fill="#75c1ff"/><path d="m.5 320h464v64c0 8.835938-7.164062 16-16 16h-432c-8.835938 0-16-7.164062-16-16zm0 0" fill="#efefef"/><path d="m248.5 360c0 8.835938-7.164062 16-16 16s-16-7.164062-16-16 7.164062-16 16-16 16 7.164062 16 16zm0 0" fill="#bcbcbc"/><path d="m176.5 400h112v64h-112zm0 0" fill="#bcbcbc"/><path d="m136.5 456h192v16h-192zm0 0" fill="#efefef"/><path d="m320.5 288v-240c0-8.835938-7.164062-16-16-16h-120c-8.835938 0-16 7.164062-16 16v240zm0 0" fill="#efefef"/><path d="m144.5 64h128c8.835938 0 16 7.164062 16 16v208h-144c-8.835938 0-16-7.164062-16-16v-192c0-8.835938 7.164062-16 16-16zm0 0" fill="#cc995e"/><path d="m288.5 176 48 56v40c0 8.835938-7.164062 16-16 16h-32zm0 0" fill="#b38652"/><path d="m248.5 152v-8c-.011719-8.832031-7.167969-15.988281-16-16h-16v-16h-16v16h-16c-8.832031.011719-15.988281 7.167969-16 16v24c.011719 8.832031 7.167969 15.988281 16 16h16v24h-16v-8h-16v8c.011719 8.832031 7.167969 15.988281 16 16h16v16h16v-16h16c8.832031-.011719 15.988281-7.167969 16-16v-24c-.011719-8.832031-7.167969-15.988281-16-16h-16v-24h16v8zm-16 32v24h-16v-24zm-32-16h-16v-24h16zm0 0" fill="#ffd04a"/></svg>