<svg height="480pt" viewBox="0 0 480 480" width="480pt" xmlns="http://www.w3.org/2000/svg"><path d="m24 320h120c8.835938 0 16 7.164062 16 16v120c0 8.835938-7.164062 16-16 16h-120c-8.835938 0-16-7.164062-16-16v-120c0-8.835938 7.164062-16 16-16zm0 0" fill="#ffbf75"/><path d="m56 352h56c8.835938 0 16 7.164062 16 16v56c0 8.835938-7.164062 16-16 16h-56c-8.835938 0-16-7.164062-16-16v-56c0-8.835938 7.164062-16 16-16zm0 0" fill="#cc995e"/><g fill="#898989"><path d="m0 168h16v16h-16zm0 0"/><path d="m280 280h16v16h-16zm0 0"/><path d="m16 152h-16v-24c.015625-13.25 10.75-23.984375 24-24 4.417969-.003906 7.996094-3.582031 8-8v-32h16v32c-.015625 13.25-10.75 23.984375-24 24-4.417969.003906-7.996094 3.582031-8 8zm0 0"/><path d="m0 64h16v24h-16zm0 0"/><path d="m64 32h48v16h-48zm0 0"/><path d="m64 64h16v48h-16zm0 0"/><path d="m480 288h-16v-40c-.003906-4.417969-3.582031-7.996094-8-8h-40v-16h40c13.25.015625 23.984375 10.75 24 24zm0 0"/><path d="m56 296h-16v-8c-.003906-4.417969-3.582031-7.996094-8-8h-8c-13.25-.015625-23.984375-10.75-24-24v-56h16v56c.003906 4.417969 3.582031 7.996094 8 8h8c13.25.015625 23.984375 10.75 24 24zm0 0"/><path d="m88 296h-16v-40c-.003906-4.417969-3.582031-7.996094-8-8h-8c-13.25-.015625-23.984375-10.75-24-24v-88h16v88c.003906 4.417969 3.582031 7.996094 8 8h8c13.25.015625 23.984375 10.75 24 24zm0 0"/><path d="m136 240h16v56h-16zm0 0"/><path d="m112 184h-24c-13.25-.015625-23.984375-10.75-24-24v-8c.015625-13.25 10.75-23.984375 24-24h24v16h-24c-4.417969.003906-7.996094 3.582031-8 8v8c.003906 4.417969 3.582031 7.996094 8 8h24zm0 0"/><path d="m232 288h-40c-13.25-.015625-23.984375-10.75-24-24v-40h16v40c.003906 4.417969 3.582031 7.996094 8 8h40zm0 0"/><path d="m384 224h16v32h-16zm0 0"/><path d="m280 224h16v40h-16zm0 0"/><path d="m368 288h-16v-40c-.003906-4.417969-3.582031-7.996094-8-8h-32v-16h32c13.25.015625 23.984375 10.75 24 24zm0 0"/><path d="m144 48h-16v-24c-.003906-4.417969-3.582031-7.996094-8-8h-56v-16h56c13.25.015625 23.984375 10.75 24 24zm0 0"/><path d="m104 280h16v16h-16zm0 0"/><path d="m104 240h16v24h-16zm0 0"/><path d="m208 256h-8v-16h8c4.417969-.003906 7.996094-3.582031 8-8v-8h16v8c-.015625 13.25-10.75 23.984375-24 24zm0 0"/><path d="m240 320h-24v-16h24c4.417969-.003906 7.996094-3.582031 8-8v-72h16v72c-.015625 13.25-10.75 23.984375-24 24zm0 0"/><path d="m232 352h-24c-13.25-.015625-23.984375-10.75-24-24v-24h16v24c.003906 4.417969 3.582031 7.996094 8 8h24zm0 0"/><path d="m184 368h16v16h-16zm0 0"/><path d="m240 384h-24v-16h24c4.417969-.003906 7.996094-3.582031 8-8v-24h16v24c-.015625 13.25-10.75 23.984375-24 24zm0 0"/><path d="m232 448h-24c-13.25-.015625-23.984375-10.75-24-24v-24h16v24c.003906 4.417969 3.582031 7.996094 8 8h24zm0 0"/><path d="m216 400h48v16h-48zm0 0"/><path d="m248 432h16v16h-16zm0 0"/><path d="m184 464h16v16h-16zm0 0"/><path d="m216 464h80v16h-80zm0 0"/><path d="m312 256h16v32h-16zm0 0"/><path d="m352 352h-16c-13.25-.015625-23.984375-10.75-24-24v-24h16v24c.003906 4.417969 3.582031 7.996094 8 8h16zm0 0"/><path d="m280 312h16v32h-16zm0 0"/><path d="m344 304h16v16h-16zm0 0"/><path d="m416 344h-16v-16c-.003906-4.417969-3.582031-7.996094-8-8h-16v-16h16c13.25.015625 23.984375 10.75 24 24zm0 0"/><path d="m384 272h32v16h-32zm0 0"/><path d="m432 256h16v32h-16zm0 0"/><path d="m432 304h48v16h-48zm0 0"/><path d="m368 336h16v48h-16zm0 0"/><path d="m320 384h-16c-13.25-.015625-23.984375-10.75-24-24h16c.003906 4.417969 3.582031 7.996094 8 8h16zm0 0"/><path d="m336 368h16v16h-16zm0 0"/><path d="m408 400h40v16h-40zm0 0"/><path d="m400 360h16v24h-16zm0 0"/><path d="m464 400h16v16h-16zm0 0"/><path d="m480 384h-24c-13.25-.015625-23.984375-10.75-24-24v-24h16v24c.003906 4.417969 3.582031 7.996094 8 8h24zm0 0"/><path d="m464 336h16v16h-16zm0 0"/><path d="m328 480h-16v-24c-.003906-4.417969-3.582031-7.996094-8-8-13.25-.015625-23.984375-10.75-24-24v-24h16v24c.003906 4.417969 3.582031 7.996094 8 8 13.25.015625 23.984375 10.75 24 24zm0 0"/><path d="m360 448h-16v-24c-.003906-4.417969-3.582031-7.996094-8-8h-24v-16h24c13.25.015625 23.984375 10.75 24 24zm0 0"/><path d="m344 464h16v16h-16zm0 0"/><path d="m376 400h16v16h-16zm0 0"/><path d="m432 432h16v16h-16zm0 0"/><path d="m456 480h-32v-16h32c4.417969-.003906 7.996094-3.582031 8-8v-24h16v24c-.015625 13.25-10.75 23.984375-24 24zm0 0"/><path d="m376 432h40v16h-40zm0 0"/><path d="m376 464h32v16h-32zm0 0"/><path d="m24 48h-24v-16h24c4.417969-.003906 7.996094-3.582031 8-8v-24h16v24c-.015625 13.25-10.75 23.984375-24 24zm0 0"/><path d="m0 0h16v16h-16zm0 0"/></g><path d="m184 8h272c8.835938 0 16 7.164062 16 16v160c0 8.835938-7.164062 16-16 16h-272c-8.835938 0-16-7.164062-16-16v-160c0-8.835938 7.164062-16 16-16zm0 0" fill="#efefef"/><path d="m224 48h24c13.253906 0 24 10.746094 24 24v24c0 13.253906-10.746094 24-24 24h-24c-13.253906 0-24-10.746094-24-24v-24c0-13.253906 10.746094-24 24-24zm0 0" fill="#ffd04a"/><path d="m432 48h16v16h-16zm0 0" fill="#bcbcbc"/><path d="m328 48h88v16h-88zm0 0" fill="#bcbcbc"/><path d="m296 48h16v16h-16zm0 0" fill="#bcbcbc"/><path d="m432 80h16v16h-16zm0 0" fill="#bcbcbc"/><path d="m328 80h88v16h-88zm0 0" fill="#bcbcbc"/><path d="m296 80h16v16h-16zm0 0" fill="#bcbcbc"/><path d="m432 112h16v16h-16zm0 0" fill="#bcbcbc"/><path d="m328 112h88v16h-88zm0 0" fill="#bcbcbc"/><path d="m296 112h16v16h-16zm0 0" fill="#bcbcbc"/><path d="m200 144h16v16h-16zm0 0" fill="#bcbcbc"/><path d="m432 144h16v16h-16zm0 0" fill="#bcbcbc"/><path d="m232 144h184v16h-184zm0 0" fill="#bcbcbc"/><path d="m144 112h-24c-13.253906 0-24-10.746094-24-24s10.746094-24 24-24h24v16h-24c-4.417969 0-8 3.582031-8 8s3.582031 8 8 8h24zm0 0" fill="#898989"/><path d="m128 128h16v16h-16zm0 0" fill="#898989"/><path d="m120 216h-56v-16h56c4.417969-.003906 7.996094-3.582031 8-8v-32h16v32c-.015625 13.25-10.75 23.984375-24 24zm0 0" fill="#898989"/></svg>