<svg height="480pt" viewBox="0 0 480 480" width="480pt" xmlns="http://www.w3.org/2000/svg"><path d="m24 120h176c8.835938 0 16 7.164062 16 16v256h-208v-256c0-8.835938 7.164062-16 16-16zm0 0" fill="#75c1ff"/><path d="m8 392h208v64c0 8.835938-7.164062 16-16 16h-176c-8.835938 0-16-7.164062-16-16zm0 0" fill="#efefef"/><path d="m48 424h24v16h-24zm0 0" fill="#bcbcbc"/><path d="m152 424h24v16h-24zm0 0" fill="#bcbcbc"/><path d="m128 432c0 8.835938-7.164062 16-16 16s-16-7.164062-16-16 7.164062-16 16-16 16 7.164062 16 16zm0 0" fill="#bcbcbc"/><path d="m96 144h32v16h-32zm0 0" fill="#5e9acc"/><path d="m456 160h-120c-8.835938 0-16-7.164062-16-16v-120c0-8.835938 7.164062-16 16-16h120c8.835938 0 16 7.164062 16 16v120c0 8.835938-7.164062 16-16 16zm0 0" fill="#ffbf75"/><path d="m432 128h-72c-4.417969 0-8-3.582031-8-8v-72c0-4.417969 3.582031-8 8-8h72c4.417969 0 8 3.582031 8 8v72c0 4.417969-3.582031 8-8 8zm0 0" fill="#cc995e"/><g fill="#898989"><path d="m464 296h16v16h-16zm0 0"/><path d="m448 416h-16v-40c.007812-8.832031 7.167969-15.992188 16-16h16v-32h16v32c-.007812 8.832031-7.167969 15.992188-16 16h-16zm0 0"/><path d="m464 392h16v24h-16zm0 0"/><path d="m376 432h40v16h-40zm0 0"/><path d="m400 368h16v48h-16zm0 0"/><path d="m480 280h-16v-64h-24c-8.832031-.007812-15.992188-7.167969-16-16v-16h16v16h24c8.832031.007812 15.992188 7.167969 16 16zm0 0"/><path d="m448 344h-16v-96h-24c-8.832031-.007812-15.992188-7.167969-16-16v-48h16v48h24c8.832031.007812 15.992188 7.167969 16 16zm0 0"/><path d="m416 320h-16c-8.832031-.007812-15.992188-7.167969-16-16v-24c.007812-8.832031 7.167969-15.992188 16-16h16v16h-16v24h16zm0 0"/><path d="m376 336h40v16h-40zm0 0"/><path d="m240 224h48v16h-48zm0 0"/><path d="m416 480h-56c-8.832031-.007812-15.992188-7.167969-16-16v-16h-24v-16h24c8.832031.007812 15.992188 7.167969 16 16v16h56zm0 0"/><path d="m328 480h-24c-8.832031-.007812-15.992188-7.167969-16-16v-16h-16v-16h16c8.832031.007812 15.992188 7.167969 16 16v16h24zm0 0"/><path d="m368 416h-96v-16h96v-16h-24v-16h24c8.832031.007812 15.992188 7.167969 16 16v16c-.007812 8.832031-7.167969 15.992188-16 16zm0 0"/><path d="m288 368h40v16h-40zm0 0"/><path d="m320 336h40v16h-40zm0 0"/><path d="m240 288h16v16h-16zm0 0"/><path d="m272 288h32v16h-32zm0 0"/><path d="m336 320h-16v-48h-80v-16h80c8.832031.007812 15.992188 7.167969 16 16zm0 0"/><path d="m352 256h16v64h-16zm0 0"/><path d="m360 184h16v16h-16zm0 0"/><path d="m360 216h16v24h-16zm0 0"/><path d="m256 208h-16v-32c.007812-8.832031 7.167969-15.992188 16-16h24v-32h16v32c-.007812 8.832031-7.167969 15.992188-16 16h-24zm0 0"/><path d="m280 96h16v16h-16zm0 0"/><path d="m296 80h-16v-32h-24v-16h24c8.832031.007812 15.992188 7.167969 16 16zm0 0"/><path d="m240 96h-16v-16c.007812-8.832031 7.167969-15.992188 16-16h24v16h-24zm0 0"/><path d="m224 32h16v16h-16zm0 0"/><path d="m280 0h16v16h-16zm0 0"/><path d="m208 32h-16v-16c.007812-8.832031 7.167969-15.9921875 16-16h56v16h-56zm0 0"/><path d="m0 80h32v16h-32zm0 0"/><path d="m208 96h-16v-32h-16c-8.832031-.007812-15.992188-7.167969-16-16v-48h16v48h16c8.832031.007812 15.992188 7.167969 16 16zm0 0"/><path d="m176 96h-48c-8.832031-.007812-15.992188-7.167969-16-16v-32h16v32h48zm0 0"/><path d="m128 0h16v32h-16zm0 0"/><path d="m48 80h16v16h-16zm0 0"/><path d="m16 64h-16v-48c.0078125-8.832031 7.167969-15.9921875 16-16h40v16h-40zm0 0"/><path d="m112 32h-16v-16h-24v-16h24c8.832031.0078125 15.992188 7.167969 16 16zm0 0"/><path d="m448 480h-16v-32c.007812-8.832031 7.167969-15.992188 16-16h32v16h-32zm0 0"/><path d="m464 464h16v16h-16zm0 0"/><path d="m328 240h-24v-16h24v-40h16v40c-.007812 8.832031-7.167969 15.992188-16 16zm0 0"/><path d="m272 192h40v16h-40zm0 0"/><path d="m304 352h-16v-16h-32v16h-16v-16c.007812-8.832031 7.167969-15.992188 16-16h32c8.832031.007812 15.992188 7.167969 16 16zm0 0"/><path d="m240 464h32v16h-32zm0 0"/><path d="m240 432h16v16h-16zm0 0"/><path d="m256 416h-16v-32c.007812-8.832031 7.167969-15.992188 16-16h16v16h-16zm0 0"/><path d="m256 144h-16v-32c.007812-8.832031 7.167969-15.992188 16-16h8v16h-8zm0 0"/><path d="m32 32h16v32h-16zm0 0"/><path d="m96 96h-16v-32c-8.832031-.007812-15.992188-7.167969-16-16v-16h16v16c8.832031.007812 15.992188 7.167969 16 16zm0 0"/></g></svg>