<svg height="480pt" viewBox="0 0 480 480" width="480pt" xmlns="http://www.w3.org/2000/svg"><path d="m24 8h120c8.835938 0 16 7.164062 16 16v120c0 8.835938-7.164062 16-16 16h-120c-8.835938 0-16-7.164062-16-16v-120c0-8.835938 7.164062-16 16-16zm0 0" fill="#ffbf75"/><path d="m48 40h72c4.417969 0 8 3.582031 8 8v72c0 4.417969-3.582031 8-8 8h-72c-4.417969 0-8-3.582031-8-8v-72c0-4.417969 3.582031-8 8-8zm0 0" fill="#cc995e"/><path d="m0 296h16v16h-16zm0 0" fill="#898989"/><path d="m280 184h16v16h-16zm0 0" fill="#898989"/><path d="m48 416h-16v-32c-.003906-4.417969-3.582031-7.996094-8-8-13.25-.015625-23.984375-10.75-24-24v-24h16v24c.003906 4.417969 3.582031 7.996094 8 8 13.25.015625 23.984375 10.75 24 24zm0 0" fill="#898989"/><path d="m0 392h16v24h-16zm0 0" fill="#898989"/><path d="m64 432h40v16h-40zm0 0" fill="#898989"/><path d="m64 368h16v48h-16zm0 0" fill="#898989"/><path d="m232 256h64v16h-64zm0 0" fill="#898989"/><path d="m304 304h-8v-16h8c4.417969-.003906 7.996094-3.582031 8-8 .015625-13.25 10.75-23.984375 24-24h32v16h-32c-4.417969.003906-7.996094 3.582031-8 8-.015625 13.25-10.75 23.984375-24 24zm0 0" fill="#898989"/><path d="m456 240h-40v-16h40c4.417969-.003906 7.996094-3.582031 8-8v-24h16v24c-.015625 13.25-10.75 23.984375-24 24zm0 0" fill="#898989"/><path d="m16 280h-16v-56c.015625-13.25 10.75-23.984375 24-24h8c4.417969-.003906 7.996094-3.582031 8-8v-8h16v8c-.015625 13.25-10.75 23.984375-24 24h-8c-4.417969.003906-7.996094 3.582031-8 8zm0 0" fill="#898989"/><path d="m48 344h-16v-88c.015625-13.25 10.75-23.984375 24-24h8c4.417969-.003906 7.996094-3.582031 8-8v-40h16v40c-.015625 13.25-10.75 23.984375-24 24h-8c-4.417969.003906-7.996094 3.582031-8 8zm0 0" fill="#898989"/><path d="m136 184h16v56h-16zm0 0" fill="#898989"/><path d="m72 320h-8v-16h8c4.417969-.003906 7.996094-3.582031 8-8v-8c-.003906-4.417969-3.582031-7.996094-8-8h-8v-16h8c13.25.015625 23.984375 10.75 24 24v8c-.015625 13.25-10.75 23.984375-24 24zm0 0" fill="#898989"/><path d="m232 328h224c8.835938 0 16 7.164062 16 16v112c0 8.835938-7.164062 16-16 16h-224c-8.835938 0-16-7.164062-16-16v-112c0-8.835938 7.164062-16 16-16zm0 0" fill="#efefef"/><path d="m424 328c0 26.507812 21.492188 48 48 48v-32c0-8.835938-7.164062-16-16-16zm0 0" fill="#73c97c"/><path d="m472 424c-26.507812 0-48 21.492188-48 48h32c8.835938 0 16-7.164062 16-16zm0 0" fill="#73c97c"/><path d="m264 328h-32c-8.835938 0-16 7.164062-16 16v32c26.507812 0 48-21.492188 48-48zm0 0" fill="#73c97c"/><path d="m264 472c0-26.507812-21.492188-48-48-48v32c0 8.835938 7.164062 16 16 16zm0 0" fill="#73c97c"/><path d="m384 400c0 22.089844-17.910156 40-40 40s-40-17.910156-40-40 17.910156-40 40-40 40 17.910156 40 40zm0 0" fill="#73c97c"/><g fill="#898989"><path d="m64 336h40v16h-40zm0 0"/><path d="m184 240h-16v-24c.015625-13.25 10.75-23.984375 24-24h40v16h-40c-4.417969.003906-7.996094 3.582031-8 8zm0 0"/><path d="m384 224h16v48h-16zm0 0"/><path d="m200 256h16v16h-16zm0 0"/><path d="m280 216h16v24h-16zm0 0"/><path d="m344 240h-32v-16h32c4.417969-.003906 7.996094-3.582031 8-8v-24h16v24c-.015625 13.25-10.75 23.984375-24 24zm0 0"/><path d="m112 480h-48v-16h48c4.417969-.003906 7.996094-3.582031 8-8 .015625-13.25 10.75-23.984375 24-24h16v16h-16c-4.417969.003906-7.996094 3.582031-8 8-.015625 13.25-10.75 23.984375-24 24zm0 0"/><path d="m168 480h-16v-16h16c4.417969-.003906 7.996094-3.582031 8-8v-24h16v24c-.015625 13.25-10.75 23.984375-24 24zm0 0"/><path d="m192 416h-72c-13.253906 0-24-10.746094-24-24s10.746094-24 24-24h16v16h-16c-4.417969 0-8 3.582031-8 8s3.582031 8 8 8h72zm0 0"/><path d="m152 368h40v16h-40zm0 0"/><path d="m128 336h32v16h-32zm0 0"/><path d="m176 336h16v16h-16zm0 0"/><path d="m192 320h-16v-8c.015625-13.25 10.75-23.984375 24-24h48v16h-48c-4.417969.003906-7.996094 3.582031-8 8zm0 0"/><path d="m160 320h-16v-40c.015625-13.25 10.75-23.984375 24-24h16v16h-16c-4.417969.003906-7.996094 3.582031-8 8zm0 0"/><path d="m112 256h16v64h-16zm0 0"/><path d="m264 288h16v16h-16zm0 0"/><path d="m344 288h16v16h-16zm0 0"/><path d="m456 304h-72v-16h72c4.417969-.003906 7.996094-3.582031 8-8v-24h16v24c-.015625 13.25-10.75 23.984375-24 24zm0 0"/><path d="m416 256h32v16h-32zm0 0"/><path d="m104 184h16v16h-16zm0 0"/><path d="m104 216h16v24h-16zm0 0"/><path d="m200 224h32v16h-32zm0 0"/><path d="m264 240h-16v-56c-.003906-4.417969-3.582031-7.996094-8-8h-24v-16h24c13.25.015625 23.984375 10.75 24 24zm0 0"/><path d="m200 176h-16v-24c.015625-13.25 10.75-23.984375 24-24h24v16h-24c-4.417969.003906-7.996094 3.582031-8 8zm0 0"/><path d="m184 96h16v16h-16zm0 0"/><path d="m264 144h-16v-24c-.003906-4.417969-3.582031-7.996094-8-8h-24v-16h24c13.25.015625 23.984375 10.75 24 24zm0 0"/><path d="m200 80h-16v-24c.015625-13.25 10.75-23.984375 24-24h24v16h-24c-4.417969.003906-7.996094 3.582031-8 8zm0 0"/><path d="m216 64h48v16h-48zm0 0"/><path d="m248 32h16v16h-16zm0 0"/><path d="m184 0h16v16h-16zm0 0"/><path d="m216 0h80v16h-80zm0 0"/><path d="m312 192h16v16h-16zm0 0"/><path d="m328 176h-16v-24c.015625-13.25 10.75-23.984375 24-24h16v16h-16c-4.417969.003906-7.996094 3.582031-8 8zm0 0"/><path d="m280 136h16v32h-16zm0 0"/><path d="m344 160h16v16h-16zm0 0"/><path d="m392 176h-16v-16h16c4.417969-.003906 7.996094-3.582031 8-8v-16h16v16c-.015625 13.25-10.75 23.984375-24 24zm0 0"/><path d="m384 192h32v16h-32zm0 0"/><path d="m432 192h16v16h-16zm0 0"/><path d="m432 160h48v16h-48zm0 0"/><path d="m368 96h16v48h-16zm0 0"/><path d="m296 120h-16c.015625-13.25 10.75-23.984375 24-24h16v16h-16c-4.417969.003906-7.996094 3.582031-8 8zm0 0"/><path d="m336 96h16v16h-16zm0 0"/><path d="m408 64h40v16h-40zm0 0"/><path d="m400 96h16v24h-16zm0 0"/><path d="m464 64h16v16h-16zm0 0"/><path d="m448 144h-16v-24c.015625-13.25 10.75-23.984375 24-24h24v16h-24c-4.417969.003906-7.996094 3.582031-8 8zm0 0"/><path d="m464 128h16v16h-16zm0 0"/><path d="m296 80h-16v-24c.015625-13.25 10.75-23.984375 24-24 4.417969-.003906 7.996094-3.582031 8-8v-24h16v24c-.015625 13.25-10.75 23.984375-24 24-4.417969.003906-7.996094 3.582031-8 8zm0 0"/><path d="m336 80h-24v-16h24c4.417969-.003906 7.996094-3.582031 8-8v-24h16v24c-.015625 13.25-10.75 23.984375-24 24zm0 0"/><path d="m344 0h16v16h-16zm0 0"/><path d="m376 64h16v16h-16zm0 0"/><path d="m432 32h16v16h-16zm0 0"/><path d="m480 48h-16v-24c-.003906-4.417969-3.582031-7.996094-8-8h-32v-16h32c13.25.015625 23.984375 10.75 24 24zm0 0"/><path d="m376 32h40v16h-40zm0 0"/><path d="m376 0h32v16h-32zm0 0"/><path d="m48 480h-16v-24c-.003906-4.417969-3.582031-7.996094-8-8h-24v-16h24c13.25.015625 23.984375 10.75 24 24zm0 0"/><path d="m0 464h16v16h-16zm0 0"/></g></svg>