<svg height="464pt" viewBox="0 -24 464 464" width="464pt" xmlns="http://www.w3.org/2000/svg"><path d="m0 72h464v328c0 8.835938-7.164062 16-16 16h-432c-8.835938 0-16-7.164062-16-16zm0 0" fill="#efefef"/><path d="m0 72v-56c0-8.835938 7.164062-16 16-16h432c8.835938 0 16 7.164062 16 16v56zm0 0" fill="#5e8acc"/><path d="m24 24h24v24h-24zm0 0" fill="#ff675b"/><path d="m64 24h24v24h-24zm0 0" fill="#73c97c"/><path d="m104 24h24v24h-24zm0 0" fill="#ffbf75"/><path d="m292.183594 256h-88.367188c-7.023437 0-13.226562-4.582031-15.292968-11.292969l-22.152344-72c-1.492188-4.855469-.59375-10.128906 2.421875-14.210937 3.015625-4.085938 7.792969-6.496094 12.871093-6.496094h132.671876c5.078124 0 9.855468 2.410156 12.871093 6.496094 3.015625 4.082031 3.914063 9.355468 2.421875 14.210937l-22.152344 72c-2.066406 6.710938-8.269531 11.292969-15.292968 11.292969zm0 0" fill="#ffbf75"/><g fill="#898989"><path d="m328 296h-148.03125c-10.628906-.042969-19.976562-7.039062-23.015625-17.226562l-33.25-113.03125c-1.015625-3.394532-4.128906-5.726563-7.671875-5.742188h-20.03125v-16h20.03125c10.628906.042969 19.976562 7.039062 23.015625 17.226562l33.25 113.03125c1.015625 3.394532 4.128906 5.726563 7.671875 5.742188h148.03125zm0 0"/><path d="m208 328c0 8.835938-7.164062 16-16 16s-16-7.164062-16-16 7.164062-16 16-16 16 7.164062 16 16zm0 0"/><path d="m312 328c0 8.835938-7.164062 16-16 16s-16-7.164062-16-16 7.164062-16 16-16 16 7.164062 16 16zm0 0"/></g><path d="m172.3125 192h151.375l4.929688-16h-161.234376zm0 0" fill="#cc995e"/></svg>