<svg height="464pt" viewBox="0 -56 464 464" width="464pt" xmlns="http://www.w3.org/2000/svg"><path d="m152 0h160c8.835938 0 16 7.164062 16 16v256h-192v-256c0-8.835938 7.164062-16 16-16zm0 0" fill="#75c1ff"/><path d="m136 272h192v64c0 8.835938-7.164062 16-16 16h-160c-8.835938 0-16-7.164062-16-16zm0 0" fill="#efefef"/><path d="m248 312c0 8.835938-7.164062 16-16 16s-16-7.164062-16-16 7.164062-16 16-16 16 7.164062 16 16zm0 0" fill="#bcbcbc"/><path d="m216 24h32v16h-32zm0 0" fill="#5e9acc"/><path d="m16 80h224c8.835938 0 16 7.164062 16 16v112c0 8.835938-7.164062 16-16 16h-224c-8.835938 0-16-7.164062-16-16v-112c0-8.835938 7.164062-16 16-16zm0 0" fill="#efefef"/><g fill="#73c97c"><path d="m208 80c0 26.507812 21.492188 48 48 48v-32c0-8.835938-7.164062-16-16-16zm0 0"/><path d="m256 176c-26.507812 0-48 21.492188-48 48h32c8.835938 0 16-7.164062 16-16zm0 0"/><path d="m48 80h-32c-8.835938 0-16 7.164062-16 16v32c26.507812 0 48-21.492188 48-48zm0 0"/><path d="m48 224c0-26.507812-21.492188-48-48-48v32c0 8.835938 7.164062 16 16 16zm0 0"/><path d="m168 152c0 22.089844-17.910156 40-40 40s-40-17.910156-40-40 17.910156-40 40-40 40 17.910156 40 40zm0 0"/></g><path d="m296 56h160c4.417969 0 8 3.582031 8 8v80c0 4.417969-3.582031 8-8 8h-160c-4.417969 0-8-3.582031-8-8v-80c0-4.417969 3.582031-8 8-8zm0 0" fill="#efefef"/><path d="m400 104c0 13.253906-10.746094 24-24 24s-24-10.746094-24-24 10.746094-24 24-24 24 10.746094 24 24zm0 0" fill="#73c97c"/><path d="m288 88c17.671875 0 32-14.328125 32-32h-24c-4.417969 0-8 3.582031-8 8zm0 0" fill="#73c97c"/><path d="m432 56c0 17.671875 14.328125 32 32 32v-24c0-4.417969-3.582031-8-8-8zm0 0" fill="#73c97c"/><path d="m288 120v24c0 4.417969 3.582031 8 8 8h24c0-17.671875-14.328125-32-32-32zm0 0" fill="#73c97c"/><path d="m464 120c-17.671875 0-32 14.328125-32 32h24c4.417969 0 8-3.582031 8-8zm0 0" fill="#73c97c"/><path d="m168 304h24v16h-24zm0 0" fill="#bcbcbc"/><path d="m272 304h24v16h-24zm0 0" fill="#bcbcbc"/></svg>