<svg height="472pt" viewBox="0 -28 472 472" width="472pt" xmlns="http://www.w3.org/2000/svg"><path d="m16 8h192c8.835938 0 16 7.164062 16 16v312h-224v-312c0-8.835938 7.164062-16 16-16zm0 0" fill="#75c1ff"/><path d="m0 336h224v64c0 8.835938-7.164062 16-16 16h-192c-8.835938 0-16-7.164062-16-16zm0 0" fill="#efefef"/><g fill="#bcbcbc"><path d="m48 368h24v16h-24zm0 0"/><path d="m128 376c0 8.835938-7.164062 16-16 16s-16-7.164062-16-16 7.164062-16 16-16 16 7.164062 16 16zm0 0"/><path d="m152 368h24v16h-24zm0 0"/></g><path d="m96 32h32v16h-32zm0 0" fill="#5e9acc"/><path d="m456 231.585938c0-55.226563-39.398438-127.585938-88-127.585938s-88 72.359375-88 127.585938c0 55.230468 39.398438 72.414062 88 72.414062s88-17.183594 88-72.414062zm0 0" fill="#cc995e"/><path d="m400 104 24-64s0-32-32-16c0-13.253906-10.746094-24-24-24s-24 10.746094-24 24c-32-16-32 16-32 16l24 64zm0 0" fill="#cc995e"/><path d="m408 184v-8c-.011719-8.832031-7.167969-15.988281-16-16h-16v-16h-16v16h-16c-8.832031.011719-15.988281 7.167969-16 16v24c.011719 8.832031 7.167969 15.988281 16 16h16v24h-16v-8h-16v8c.011719 8.832031 7.167969 15.988281 16 16h16v16h16v-16h16c8.832031-.011719 15.988281-7.167969 16-16v-24c-.011719-8.832031-7.167969-15.988281-16-16h-16v-24h16v8zm-16 32v24h-16v-24zm-32-16h-16v-24h16zm0 0" fill="#ffd04a"/><path d="m296 96h144v16h-144zm0 0" fill="#997346"/><path d="m456 96h16v16h-16zm0 0" fill="#997346"/><path d="m280 368h24v48h-24c-8.835938 0-16-7.164062-16-16v-16c0-8.835938 7.164062-16 16-16zm0 0" fill="#73c97c"/><path d="m304 368h16l34.8125-23.207031c7.28125-4.855469 17.125-2.886719 21.980469 4.394531 4.191406 6.289062 3.363281 14.65625-1.980469 20l-6.8125 6.8125h32l27.726562-16.636719c6.871094-4.121093 15.769532-2.121093 20.210938 4.542969 4.496094 6.742188 2.828125 15.832031-3.761719 20.539062l-44.175781 31.554688h-96zm0 0" fill="#ffd7a8"/></svg>