<svg height="472pt" viewBox="-44 0 472 472" width="472pt" xmlns="http://www.w3.org/2000/svg"><path d="m16 0h160c8.835938 0 16 7.164062 16 16v264h-192v-264c0-8.835938 7.164062-16 16-16zm0 0" fill="#75c1ff"/><path d="m80 32h32v16h-32zm0 0" fill="#5e9acc"/><path d="m0 280h192v64c0 8.835938-7.164062 16-16 16h-160c-8.835938 0-16-7.164062-16-16zm0 0" fill="#efefef"/><g fill="#bcbcbc"><path d="m32 312h24v16h-24zm0 0"/><path d="m136 312h24v16h-24zm0 0"/><path d="m112 320c0 8.835938-7.164062 16-16 16s-16-7.164062-16-16 7.164062-16 16-16 16 7.164062 16 16zm0 0"/></g><path d="m296 0h-56c-8.835938 0-16 7.164062-16 16v72c0 8.835938 7.164062 16 16 16h56c8.835938 0 16 7.164062 16 16v128c0 8.835938-7.164062 16-16 16h-56c-8.835938 0-16 7.164062-16 16v72c0 8.835938 7.164062 16 16 16h128c8.835938 0 16-7.164062 16-16v-336c0-8.835938-7.164062-16-16-16zm0 0" fill="#73c97c"/><path d="m136 136v-8c-.011719-8.832031-7.167969-15.988281-16-16h-16v-16h-16v16h-16c-8.832031.011719-15.988281 7.167969-16 16v24c.011719 8.832031 7.167969 15.988281 16 16h16v24h-16v-8h-16v8c.011719 8.832031 7.167969 15.988281 16 16h16v16h16v-16h16c8.832031-.011719 15.988281-7.167969 16-16v-24c-.011719-8.832031-7.167969-15.988281-16-16h-16v-24h16v8zm-16 32v24h-16v-24zm-32-16h-16v-24h16zm0 0" fill="#ffd04a"/><path d="m240 0h48v104h-48c-8.835938 0-16-7.164062-16-16v-72c0-8.835938 7.164062-16 16-16zm0 0" fill="#65af6d"/><path d="m240 264h48v104h-48c-8.835938 0-16-7.164062-16-16v-72c0-8.835938 7.164062-16 16-16zm0 0" fill="#65af6d"/><path d="m320 368h32v24c0 4.417969-3.582031 8-8 8h-16c-4.417969 0-8-3.582031-8-8zm0 0" fill="#65af6d"/><path d="m328 400h16v72h-16zm0 0" fill="#bcbcbc"/></svg>