<svg height="464pt" viewBox="0 -16 464 464" width="464pt" xmlns="http://www.w3.org/2000/svg"><path d="m16 0h160c8.835938 0 16 7.164062 16 16v224h-192v-224c0-8.835938 7.164062-16 16-16zm0 0" fill="#75c1ff"/><path d="m80 24h32v16h-32zm0 0" fill="#5e9acc"/><path d="m0 240h192v64c0 8.835938-7.164062 16-16 16h-160c-8.835938 0-16-7.164062-16-16zm0 0" fill="#d6d6d6"/><path d="m32 272h24v16h-24zm0 0" fill="#a3a3a3"/><path d="m112 280c0 8.835938-7.164062 16-16 16s-16-7.164062-16-16 7.164062-16 16-16 16 7.164062 16 16zm0 0" fill="#a3a3a3"/><path d="m136 112v-8c-.011719-8.832031-7.167969-15.988281-16-16h-16v-16h-16v16h-16c-8.832031.011719-15.988281 7.167969-16 16v24c.011719 8.832031 7.167969 15.988281 16 16h16v24h-16v-8h-16v8c.011719 8.832031 7.167969 15.988281 16 16h16v16h16v-16h16c8.832031-.011719 15.988281-7.167969 16-16v-24c-.011719-8.832031-7.167969-15.988281-16-16h-16v-24h16v8zm-16 32v24h-16v-24zm-32-16h-16v-24h16zm0 0" fill="#ffd04a"/><path d="m400 72c0 30.929688-25.070312 56-56 56s-56-25.070312-56-56 25.070312-56 56-56 56 25.070312 56 56zm0 0" fill="#ff675b"/><path d="m368 64h-16v-16h-16v16h-16v16h16v16h16v-16h16zm0 0" fill="#efefef"/><path d="m160 224h288c8.835938 0 16 7.164062 16 16v176c0 8.835938-7.164062 16-16 16h-288c-8.835938 0-16-7.164062-16-16v-176c0-8.835938 7.164062-16 16-16zm0 0" fill="#efefef"/><g fill="#73c97c"><path d="m360 328c0 30.929688-25.070312 56-56 56s-56-25.070312-56-56 25.070312-56 56-56 56 25.070312 56 56zm0 0"/><path d="m144 296c39.765625 0 72-32.234375 72-72h-56c-8.835938 0-16 7.164062-16 16zm0 0"/><path d="m144 360v56c0 8.835938 7.164062 16 16 16h56c0-39.765625-32.234375-72-72-72zm0 0"/><path d="m392 224c0 39.765625 32.234375 72 72 72v-56c0-8.835938-7.164062-16-16-16zm0 0"/><path d="m464 360c-39.765625 0-72 32.234375-72 72h56c8.835938 0 16-7.164062 16-16zm0 0"/></g><path d="m248 64h40v16h-40zm0 0" fill="#bcbcbc"/><path d="m216 64h16v16h-16zm0 0" fill="#bcbcbc"/><path d="m336 184h16v16h-16zm0 0" fill="#bcbcbc"/><path d="m336 128h16v40h-16zm0 0" fill="#bcbcbc"/></svg>