<svg height="464pt" viewBox="0 -24 464 464" width="464pt" xmlns="http://www.w3.org/2000/svg"><path d="m464 72v328c0 8.835938-7.164062 16-16 16h-432c-8.835938 0-16-7.164062-16-16v-328zm0 0" fill="#efefef"/><path d="m0 72v-56c0-8.835938 7.164062-16 16-16h432c8.835938 0 16 7.164062 16 16v56zm0 0" fill="#5e8acc"/><path d="m24 24h24v24h-24zm0 0" fill="#ff675b"/><path d="m64 24h24v24h-24zm0 0" fill="#73c97c"/><path d="m104 24h24v24h-24zm0 0" fill="#ffbf75"/><path d="m152 128h224c8.835938 0 16 7.164062 16 16v128c0 8.835938-7.164062 16-16 16h-224c-8.835938 0-16-7.164062-16-16v-128c0-8.835938 7.164062-16 16-16zm0 0" fill="#d0534a"/><path d="m136 160h256v56h-256zm0 0" fill="#3d3d3d"/><path d="m72 200h224c8.835938 0 16 7.164062 16 16v128c0 8.835938-7.164062 16-16 16h-224c-8.835938 0-16-7.164062-16-16v-128c0-8.835938 7.164062-16 16-16zm0 0" fill="#ff665b"/><g fill="#b34740"><path d="m272 224h16v16h-16zm0 0"/><path d="m208 224h48v16h-48zm0 0"/><path d="m176 224h16v16h-16zm0 0"/><path d="m272 256h16v16h-16zm0 0"/><path d="m208 256h48v16h-48zm0 0"/><path d="m176 256h16v16h-16zm0 0"/><path d="m272 288h16v16h-16zm0 0"/><path d="m208 288h48v16h-48zm0 0"/><path d="m176 288h16v16h-16zm0 0"/><path d="m80 320h16v16h-16zm0 0"/><path d="m272 320h16v16h-16zm0 0"/><path d="m112 320h144v16h-144zm0 0"/></g><path d="m104 232h32c8.835938 0 16 7.164062 16 16v32c0 8.835938-7.164062 16-16 16h-32c-8.835938 0-16-7.164062-16-16v-32c0-8.835938 7.164062-16 16-16zm0 0" fill="#ffd04a"/></svg>