<svg height="464pt" viewBox="0 -24 464 464" width="464pt" xmlns="http://www.w3.org/2000/svg"><path d="m0 72h464v328c0 8.835938-7.164062 16-16 16h-432c-8.835938 0-16-7.164062-16-16zm0 0" fill="#efefef"/><path d="m0 72v-56c0-8.835938 7.164062-16 16-16h432c8.835938 0 16 7.164062 16 16v56zm0 0" fill="#5e8acc"/><path d="m24 24h24v24h-24zm0 0" fill="#ff675b"/><path d="m64 24h24v24h-24zm0 0" fill="#73c97c"/><path d="m104 24h24v24h-24zm0 0" fill="#ffbf75"/><path d="m72 184h232c8.835938 0 16 7.164062 16 16v128c0 8.835938-7.164062 16-16 16h-232c-8.835938 0-16-7.164062-16-16v-128c0-8.835938 7.164062-16 16-16zm0 0" fill="#73c97c"/><path d="m104 216h32c8.835938 0 16 7.164062 16 16v32c0 8.835938-7.164062 16-16 16h-32c-8.835938 0-16-7.164062-16-16v-32c0-8.835938 7.164062-16 16-16zm0 0" fill="#ffd04a"/><path d="m382.226562 243.714844 33.941407-33.941406c3.121093-3.121094 3.121093-8.1875 0-11.3125l-22.628907-22.628907c-3.125-3.121093-8.191406-3.121093-11.3125 0l-33.941406 33.941407zm0 0" fill="#cc995e"/><path d="m312 152h16v40h-16zm0 0" fill="#cc995e"/><path d="m408 272c0 48.601562-39.398438 88-88 88s-88-39.398438-88-88 39.398438-88 88-88 88 39.398438 88 88zm0 0" fill="#ffbf75"/><path d="m304 120h32c4.417969 0 8 3.582031 8 8v16c0 4.417969-3.582031 8-8 8h-32c-4.417969 0-8-3.582031-8-8v-16c0-4.417969 3.582031-8 8-8zm0 0" fill="#ffd04a"/><path d="m314.878906 265.855469 47.992188-40.007813 10.25 12.296875-47.992188 40.007813zm0 0" fill="#cc995e"/><g fill="#477c4d"><path d="m176 208h40v16h-40zm0 0"/><path d="m176 240h32v16h-32zm0 0"/><path d="m176 272h32v16h-32zm0 0"/><path d="m104 304h16v16h-16zm0 0"/><path d="m136 304h80v16h-80zm0 0"/></g></svg>